<svg width="1587" height="405" viewBox="0 0 1587 405" fill="none" xmlns="http://www.w3.org/2000/svg">
<g clip-path="url(#clip0_1_2)">
<rect width="1587" height="405" fill="white"/>
<path d="M907.293 110.756C906.603 111.216 906.417 112.147 906.876 112.836C907.335 113.526 908.266 113.713 908.956 113.253L907.293 110.756ZM970.338 70.5762C972.787 74.2537 977.753 75.2497 981.431 72.8008C985.108 70.3519 986.104 65.3855 983.655 61.708C981.207 58.0305 976.24 57.0345 972.563 59.4834C968.885 61.9322 967.889 66.8987 970.338 70.5762ZM908.956 113.253L977.828 67.3906L976.165 64.8936L907.293 110.756L908.956 113.253Z" fill="#E1FCCC"/>
<path d="M1252.67 117.176C1250.22 120.854 1245.25 121.85 1241.57 119.401C1237.9 116.952 1236.9 111.985 1239.35 108.308C1241.8 104.63 1246.76 103.634 1250.44 106.083C1254.12 108.532 1255.12 113.499 1252.67 117.176ZM1176.3 68.1277C1175.61 67.6685 1175.43 66.7373 1175.89 66.0478C1176.35 65.3582 1177.28 65.1715 1177.97 65.6306L1176.3 68.1277ZM1245.18 113.99L1176.3 68.1277L1177.97 65.6306L1246.84 111.493L1245.18 113.99Z" fill="#FCF1CC"/>
<path d="M908.945 110.747C908.253 110.292 907.323 110.484 906.868 111.176C906.413 111.868 906.605 112.798 907.297 113.253L908.945 110.747ZM970.448 152.988C968.021 156.68 969.045 161.64 972.737 164.068C976.428 166.496 981.389 165.471 983.817 161.779C986.244 158.088 985.22 153.127 981.528 150.7C977.836 148.272 972.876 149.297 970.448 152.988ZM907.297 113.253L976.308 158.637L977.957 156.13L908.945 110.747L907.297 113.253Z" fill="#E1FCCC"/>
<path d="M1252.7 108.341C1255.12 112.033 1254.1 116.994 1250.41 119.421C1246.72 121.849 1241.75 120.824 1239.33 117.133C1236.9 113.441 1237.92 108.481 1241.62 106.053C1245.31 103.625 1250.27 104.65 1252.7 108.341ZM1177.82 159.374C1177.13 159.829 1176.2 159.637 1175.75 158.945C1175.29 158.253 1175.48 157.323 1176.18 156.868L1177.82 159.374ZM1246.84 113.99L1177.82 159.374L1176.18 156.868L1245.19 111.484L1246.84 113.99Z" fill="#FCF1CC"/>
<path d="M909.489 111C908.661 111.006 907.994 111.683 908 112.511C908.006 113.339 908.683 114.006 909.511 114L909.489 111ZM969.133 112.059C969.165 116.477 972.773 120.032 977.191 120C981.61 119.967 985.165 116.359 985.132 111.941C985.099 107.523 981.491 103.968 977.073 104C972.655 104.033 969.1 107.641 969.133 112.059ZM909.511 114L977.143 113.5L977.121 110.5L909.489 111L909.511 114Z" fill="#E1FCCC"/>
<path d="M1252.63 113.296C1252.6 117.714 1248.99 121.27 1244.57 121.237C1240.16 121.204 1236.6 117.596 1236.63 113.178C1236.67 108.76 1240.27 105.205 1244.69 105.237C1249.11 105.27 1252.66 108.878 1252.63 113.296ZM1176.99 114.237C1176.16 114.231 1175.49 113.554 1175.5 112.726C1175.51 111.898 1176.18 111.231 1177.01 111.237L1176.99 114.237ZM1244.62 114.737L1176.99 114.237L1177.01 111.237L1244.64 111.737L1244.62 114.737Z" fill="#FCF1CC"/>
<rect x="709.5" y="52.5" width="200" height="120" rx="11" fill="#D3EFFC"/>
<path d="M733.36 106.5V89.7H740.2C741.112 89.7 741.936 89.932 742.672 90.396C743.424 90.844 744.024 91.46 744.472 92.244C744.92 93.028 745.144 93.9 745.144 94.86C745.144 95.82 744.92 96.692 744.472 97.476C744.024 98.26 743.424 98.892 742.672 99.372C741.936 99.836 741.112 100.068 740.2 100.068H735.952V106.5H733.36ZM735.952 97.572H740.152C740.584 97.572 740.976 97.452 741.328 97.212C741.68 96.956 741.96 96.628 742.168 96.228C742.392 95.812 742.504 95.356 742.504 94.86C742.504 94.364 742.392 93.916 742.168 93.516C741.96 93.116 741.68 92.796 741.328 92.556C740.976 92.316 740.584 92.196 740.152 92.196H735.952V97.572ZM750.347 106.5V93.9H752.843V97.86L752.603 96.9C752.779 96.292 753.075 95.74 753.491 95.244C753.923 94.748 754.411 94.356 754.955 94.068C755.515 93.78 756.091 93.636 756.683 93.636C756.955 93.636 757.211 93.66 757.451 93.708C757.707 93.756 757.907 93.812 758.051 93.876L757.403 96.564C757.211 96.484 756.995 96.42 756.755 96.372C756.531 96.308 756.307 96.276 756.083 96.276C755.651 96.276 755.235 96.364 754.835 96.54C754.451 96.7 754.107 96.932 753.803 97.236C753.515 97.524 753.283 97.868 753.107 98.268C752.931 98.652 752.843 99.076 752.843 99.54V106.5H750.347ZM767.767 106.74C766.471 106.74 765.319 106.468 764.311 105.924C763.319 105.364 762.535 104.604 761.959 103.644C761.399 102.684 761.119 101.58 761.119 100.332C761.119 99.34 761.279 98.436 761.599 97.62C761.919 96.804 762.359 96.1 762.919 95.508C763.495 94.9 764.175 94.436 764.959 94.116C765.759 93.78 766.623 93.612 767.551 93.612C768.367 93.612 769.127 93.772 769.831 94.092C770.535 94.396 771.143 94.82 771.655 95.364C772.183 95.908 772.583 96.556 772.855 97.308C773.143 98.044 773.279 98.852 773.263 99.732L773.239 100.788H762.943L762.391 98.82H771.103L770.743 99.228V98.652C770.695 98.124 770.519 97.652 770.215 97.236C769.911 96.82 769.527 96.492 769.063 96.252C768.599 96.012 768.095 95.892 767.551 95.892C766.687 95.892 765.959 96.06 765.367 96.396C764.775 96.716 764.327 97.196 764.023 97.836C763.719 98.46 763.567 99.236 763.567 100.164C763.567 101.044 763.751 101.812 764.119 102.468C764.487 103.108 765.007 103.604 765.679 103.956C766.351 104.308 767.127 104.484 768.007 104.484C768.631 104.484 769.207 104.38 769.735 104.172C770.279 103.964 770.863 103.588 771.487 103.044L772.735 104.796C772.351 105.18 771.879 105.516 771.319 105.804C770.775 106.092 770.191 106.324 769.567 106.5C768.959 106.66 768.359 106.74 767.767 106.74ZM778.398 106.5V88.74H780.87V106.5H778.398ZM787.181 106.5V93.9H789.653V106.5H787.181ZM788.381 91.116C787.853 91.116 787.445 90.98 787.157 90.708C786.869 90.436 786.725 90.052 786.725 89.556C786.725 89.092 786.869 88.716 787.157 88.428C787.461 88.14 787.869 87.996 788.381 87.996C788.909 87.996 789.317 88.132 789.605 88.404C789.893 88.676 790.037 89.06 790.037 89.556C790.037 90.02 789.885 90.396 789.581 90.684C789.293 90.972 788.893 91.116 788.381 91.116ZM795.805 106.5V93.9H798.301V96.588L797.845 96.876C797.973 96.46 798.173 96.06 798.445 95.676C798.733 95.292 799.077 94.956 799.477 94.668C799.893 94.364 800.333 94.124 800.797 93.948C801.277 93.772 801.765 93.684 802.261 93.684C802.981 93.684 803.613 93.804 804.157 94.044C804.701 94.284 805.149 94.644 805.501 95.124C805.853 95.604 806.109 96.204 806.269 96.924L805.885 96.828L806.053 96.42C806.229 96.052 806.469 95.708 806.773 95.388C807.093 95.052 807.453 94.756 807.853 94.5C808.253 94.244 808.677 94.044 809.125 93.9C809.573 93.756 810.013 93.684 810.445 93.684C811.389 93.684 812.165 93.876 812.773 94.26C813.397 94.644 813.861 95.228 814.165 96.012C814.485 96.796 814.645 97.772 814.645 98.94V106.5H812.149V99.084C812.149 98.364 812.053 97.78 811.861 97.332C811.685 96.868 811.413 96.524 811.045 96.3C810.677 96.076 810.205 95.964 809.629 95.964C809.181 95.964 808.757 96.044 808.357 96.204C807.973 96.348 807.637 96.556 807.349 96.828C807.061 97.1 806.837 97.42 806.677 97.788C806.517 98.14 806.437 98.532 806.437 98.964V106.5H803.941V99.036C803.941 98.38 803.845 97.828 803.653 97.38C803.461 96.916 803.181 96.564 802.813 96.324C802.445 96.084 801.997 95.964 801.469 95.964C801.021 95.964 800.605 96.044 800.221 96.204C799.837 96.348 799.501 96.556 799.213 96.828C798.925 97.084 798.701 97.396 798.541 97.764C798.381 98.116 798.301 98.5 798.301 98.916V106.5H795.805ZM820.763 106.5V93.9H823.235V106.5H820.763ZM821.963 91.116C821.435 91.116 821.027 90.98 820.739 90.708C820.451 90.436 820.307 90.052 820.307 89.556C820.307 89.092 820.451 88.716 820.739 88.428C821.043 88.14 821.451 87.996 821.963 87.996C822.491 87.996 822.899 88.132 823.187 88.404C823.475 88.676 823.619 89.06 823.619 89.556C823.619 90.02 823.467 90.396 823.163 90.684C822.875 90.972 822.475 91.116 821.963 91.116ZM829.434 106.5V93.9H831.906V96.492L831.474 96.78C831.634 96.22 831.946 95.708 832.41 95.244C832.874 94.764 833.426 94.38 834.066 94.092C834.706 93.788 835.362 93.636 836.034 93.636C836.994 93.636 837.794 93.828 838.434 94.212C839.074 94.58 839.554 95.148 839.874 95.916C840.194 96.684 840.354 97.652 840.354 98.82V106.5H837.882V98.988C837.882 98.268 837.786 97.676 837.594 97.212C837.402 96.732 837.106 96.388 836.706 96.18C836.306 95.956 835.81 95.86 835.218 95.892C834.738 95.892 834.298 95.972 833.898 96.132C833.498 96.276 833.146 96.484 832.842 96.756C832.554 97.028 832.322 97.348 832.146 97.716C831.986 98.068 831.906 98.452 831.906 98.868V106.5H830.682C830.474 106.5 830.266 106.5 830.058 106.5C829.85 106.5 829.642 106.5 829.434 106.5ZM850.956 106.74C849.916 106.74 848.964 106.452 848.1 105.876C847.252 105.3 846.572 104.516 846.06 103.524C845.548 102.532 845.292 101.412 845.292 100.164C845.292 98.9 845.548 97.78 846.06 96.804C846.588 95.812 847.292 95.036 848.172 94.476C849.068 93.916 850.068 93.636 851.172 93.636C851.828 93.636 852.428 93.732 852.972 93.924C853.516 94.116 853.988 94.388 854.388 94.74C854.804 95.076 855.14 95.468 855.396 95.916C855.668 96.364 855.836 96.844 855.9 97.356L855.348 97.164V93.9H857.844V106.5H855.348V103.5L855.924 103.332C855.828 103.764 855.628 104.188 855.324 104.604C855.036 105.004 854.66 105.364 854.196 105.684C853.748 106.004 853.244 106.26 852.684 106.452C852.14 106.644 851.564 106.74 850.956 106.74ZM851.604 104.46C852.356 104.46 853.02 104.276 853.596 103.908C854.172 103.54 854.62 103.036 854.94 102.396C855.276 101.74 855.444 100.996 855.444 100.164C855.444 99.348 855.276 98.62 854.94 97.98C854.62 97.34 854.172 96.836 853.596 96.468C853.02 96.1 852.356 95.916 851.604 95.916C850.868 95.916 850.212 96.1 849.636 96.468C849.076 96.836 848.628 97.34 848.292 97.98C847.972 98.62 847.812 99.348 847.812 100.164C847.812 100.996 847.972 101.74 848.292 102.396C848.628 103.036 849.076 103.54 849.636 103.908C850.212 104.276 850.868 104.46 851.604 104.46ZM863.695 106.5V93.9H866.191V97.86L865.951 96.9C866.127 96.292 866.423 95.74 866.839 95.244C867.271 94.748 867.759 94.356 868.303 94.068C868.863 93.78 869.439 93.636 870.031 93.636C870.303 93.636 870.559 93.66 870.799 93.708C871.055 93.756 871.255 93.812 871.399 93.876L870.751 96.564C870.559 96.484 870.343 96.42 870.103 96.372C869.879 96.308 869.655 96.276 869.431 96.276C868.999 96.276 868.583 96.364 868.183 96.54C867.799 96.7 867.455 96.932 867.151 97.236C866.863 97.524 866.631 97.868 866.455 98.268C866.279 98.652 866.191 99.076 866.191 99.54V106.5H863.695ZM877.887 112.02L880.431 106.14L880.455 108.108L874.167 93.9H877.047L880.983 103.164C881.063 103.324 881.159 103.572 881.271 103.908C881.383 104.228 881.479 104.548 881.559 104.868L880.935 105.012C881.063 104.676 881.183 104.34 881.295 104.004C881.423 103.668 881.543 103.332 881.655 102.996L884.943 93.9H887.871L882.687 106.5L880.551 112.02H877.887ZM764.666 136.5L771.17 119.7H773.81L780.266 136.5H777.506L773.666 126.372C773.618 126.26 773.522 125.988 773.378 125.556C773.25 125.124 773.098 124.644 772.922 124.116C772.746 123.588 772.586 123.108 772.442 122.676C772.298 122.228 772.202 121.94 772.154 121.812L772.706 121.788C772.61 122.06 772.49 122.404 772.346 122.82C772.218 123.236 772.074 123.676 771.914 124.14C771.77 124.604 771.626 125.044 771.482 125.46C771.338 125.86 771.218 126.196 771.122 126.468L767.306 136.5H764.666ZM767.546 132.324L768.506 129.828H776.138L777.242 132.324H767.546ZM789.882 136.74C788.714 136.74 787.666 136.452 786.738 135.876C785.826 135.3 785.098 134.516 784.554 133.524C784.026 132.532 783.762 131.42 783.762 130.188C783.762 128.956 784.026 127.844 784.554 126.852C785.098 125.86 785.826 125.076 786.738 124.5C787.666 123.924 788.714 123.636 789.882 123.636C791.002 123.636 792.018 123.868 792.93 124.332C793.858 124.78 794.562 125.396 795.042 126.18L793.674 127.86C793.418 127.492 793.09 127.156 792.69 126.852C792.29 126.548 791.866 126.308 791.418 126.132C790.97 125.956 790.538 125.868 790.122 125.868C789.354 125.868 788.666 126.06 788.058 126.444C787.466 126.812 786.994 127.324 786.642 127.98C786.29 128.636 786.114 129.372 786.114 130.188C786.114 131.004 786.298 131.74 786.666 132.396C787.034 133.036 787.522 133.548 788.13 133.932C788.738 134.316 789.41 134.508 790.146 134.508C790.578 134.508 790.994 134.436 791.394 134.292C791.81 134.148 792.21 133.932 792.594 133.644C792.978 133.356 793.338 133.004 793.674 132.588L795.042 134.268C794.53 134.988 793.794 135.58 792.834 136.044C791.89 136.508 790.906 136.74 789.882 136.74ZM801.334 136.5V120.684H803.806V136.5H801.334ZM798.718 126.3V123.9H806.734V126.3H798.718ZM811.793 136.5V123.9H814.265V136.5H811.793ZM812.993 121.116C812.465 121.116 812.057 120.98 811.769 120.708C811.481 120.436 811.337 120.052 811.337 119.556C811.337 119.092 811.481 118.716 811.769 118.428C812.073 118.14 812.481 117.996 812.993 117.996C813.521 117.996 813.929 118.132 814.217 118.404C814.505 118.676 814.649 119.06 814.649 119.556C814.649 120.02 814.497 120.396 814.193 120.684C813.905 120.972 813.505 121.116 812.993 121.116ZM826.129 136.74C824.897 136.74 823.793 136.46 822.817 135.9C821.857 135.324 821.097 134.548 820.537 133.572C819.977 132.58 819.697 131.452 819.697 130.188C819.697 128.924 819.977 127.804 820.537 126.828C821.097 125.836 821.857 125.06 822.817 124.5C823.793 123.924 824.897 123.636 826.129 123.636C827.345 123.636 828.433 123.924 829.393 124.5C830.369 125.06 831.137 125.836 831.697 126.828C832.257 127.804 832.537 128.924 832.537 130.188C832.537 131.452 832.257 132.58 831.697 133.572C831.137 134.548 830.369 135.324 829.393 135.9C828.433 136.46 827.345 136.74 826.129 136.74ZM826.129 134.484C826.881 134.484 827.553 134.3 828.145 133.932C828.737 133.548 829.201 133.036 829.537 132.396C829.873 131.74 830.033 131.004 830.017 130.188C830.033 129.356 829.873 128.62 829.537 127.98C829.201 127.324 828.737 126.812 828.145 126.444C827.553 126.076 826.881 125.892 826.129 125.892C825.377 125.892 824.697 126.084 824.089 126.468C823.497 126.836 823.033 127.348 822.697 128.004C822.361 128.644 822.201 129.372 822.217 130.188C822.201 131.004 822.361 131.74 822.697 132.396C823.033 133.036 823.497 133.548 824.089 133.932C824.697 134.3 825.377 134.484 826.129 134.484ZM837.63 136.5V123.9H840.102V126.492L839.67 126.78C839.83 126.22 840.142 125.708 840.606 125.244C841.07 124.764 841.622 124.38 842.262 124.092C842.902 123.788 843.558 123.636 844.23 123.636C845.19 123.636 845.99 123.828 846.63 124.212C847.27 124.58 847.75 125.148 848.07 125.916C848.39 126.684 848.55 127.652 848.55 128.82V136.5H846.078V128.988C846.078 128.268 845.982 127.676 845.79 127.212C845.598 126.732 845.302 126.388 844.902 126.18C844.502 125.956 844.006 125.86 843.414 125.892C842.934 125.892 842.494 125.972 842.094 126.132C841.694 126.276 841.342 126.484 841.038 126.756C840.75 127.028 840.518 127.348 840.342 127.716C840.182 128.068 840.102 128.452 840.102 128.868V136.5H838.878C838.67 136.5 838.462 136.5 838.254 136.5C838.046 136.5 837.838 136.5 837.63 136.5ZM858.504 136.74C857.448 136.74 856.496 136.556 855.648 136.188C854.8 135.82 854.096 135.276 853.536 134.556L855.216 133.116C855.696 133.676 856.216 134.084 856.776 134.34C857.352 134.58 858 134.7 858.72 134.7C859.008 134.7 859.272 134.668 859.512 134.604C859.768 134.524 859.984 134.412 860.16 134.268C860.352 134.124 860.496 133.956 860.592 133.764C860.688 133.556 860.736 133.332 860.736 133.092C860.736 132.676 860.584 132.34 860.28 132.084C860.12 131.972 859.864 131.852 859.512 131.724C859.176 131.58 858.736 131.436 858.192 131.292C857.264 131.052 856.504 130.78 855.912 130.476C855.32 130.172 854.864 129.828 854.544 129.444C854.304 129.14 854.128 128.812 854.016 128.46C853.904 128.092 853.848 127.692 853.848 127.26C853.848 126.732 853.96 126.252 854.184 125.82C854.424 125.372 854.744 124.988 855.144 124.668C855.56 124.332 856.04 124.076 856.584 123.9C857.144 123.724 857.736 123.636 858.36 123.636C858.952 123.636 859.536 123.716 860.112 123.876C860.704 124.036 861.248 124.268 861.744 124.572C862.24 124.876 862.656 125.236 862.992 125.652L861.576 127.212C861.272 126.908 860.936 126.644 860.568 126.42C860.216 126.18 859.856 125.996 859.488 125.868C859.12 125.74 858.784 125.676 858.48 125.676C858.144 125.676 857.84 125.708 857.568 125.772C857.296 125.836 857.064 125.932 856.872 126.06C856.696 126.188 856.56 126.348 856.464 126.54C856.368 126.732 856.32 126.948 856.32 127.188C856.336 127.396 856.384 127.596 856.464 127.788C856.56 127.964 856.688 128.116 856.848 128.244C857.024 128.372 857.288 128.508 857.64 128.652C857.992 128.796 858.44 128.932 858.984 129.06C859.784 129.268 860.44 129.5 860.952 129.756C861.48 129.996 861.896 130.276 862.2 130.596C862.52 130.9 862.744 131.252 862.872 131.652C863 132.052 863.064 132.5 863.064 132.996C863.064 133.716 862.856 134.364 862.44 134.94C862.04 135.5 861.496 135.94 860.808 136.26C860.12 136.58 859.352 136.74 858.504 136.74Z" fill="black"/>
<rect x="442" y="62.5" width="200" height="100" rx="11" fill="#FACAD4"/>
<path d="M484.132 106.5V92.196H479.428V89.7H491.572V92.196H486.724V106.5H484.132ZM500.033 106.74C498.737 106.74 497.585 106.468 496.577 105.924C495.585 105.364 494.801 104.604 494.225 103.644C493.665 102.684 493.385 101.58 493.385 100.332C493.385 99.34 493.545 98.436 493.865 97.62C494.185 96.804 494.625 96.1 495.185 95.508C495.761 94.9 496.441 94.436 497.225 94.116C498.025 93.78 498.889 93.612 499.817 93.612C500.633 93.612 501.393 93.772 502.097 94.092C502.801 94.396 503.409 94.82 503.921 95.364C504.449 95.908 504.849 96.556 505.121 97.308C505.409 98.044 505.545 98.852 505.529 99.732L505.505 100.788H495.209L494.657 98.82H503.369L503.009 99.228V98.652C502.961 98.124 502.785 97.652 502.481 97.236C502.177 96.82 501.793 96.492 501.329 96.252C500.865 96.012 500.361 95.892 499.817 95.892C498.953 95.892 498.225 96.06 497.633 96.396C497.041 96.716 496.593 97.196 496.289 97.836C495.985 98.46 495.833 99.236 495.833 100.164C495.833 101.044 496.017 101.812 496.385 102.468C496.753 103.108 497.273 103.604 497.945 103.956C498.617 104.308 499.393 104.484 500.273 104.484C500.897 104.484 501.473 104.38 502.001 104.172C502.545 103.964 503.129 103.588 503.753 103.044L505.001 104.796C504.617 105.18 504.145 105.516 503.585 105.804C503.041 106.092 502.457 106.324 501.833 106.5C501.225 106.66 500.625 106.74 500.033 106.74ZM515.967 106.74C514.799 106.74 513.751 106.452 512.823 105.876C511.911 105.3 511.183 104.516 510.639 103.524C510.111 102.532 509.847 101.42 509.847 100.188C509.847 98.956 510.111 97.844 510.639 96.852C511.183 95.86 511.911 95.076 512.823 94.5C513.751 93.924 514.799 93.636 515.967 93.636C517.087 93.636 518.103 93.868 519.015 94.332C519.943 94.78 520.647 95.396 521.127 96.18L519.759 97.86C519.503 97.492 519.175 97.156 518.775 96.852C518.375 96.548 517.951 96.308 517.503 96.132C517.055 95.956 516.623 95.868 516.207 95.868C515.439 95.868 514.751 96.06 514.143 96.444C513.551 96.812 513.079 97.324 512.727 97.98C512.375 98.636 512.199 99.372 512.199 100.188C512.199 101.004 512.383 101.74 512.751 102.396C513.119 103.036 513.607 103.548 514.215 103.932C514.823 104.316 515.495 104.508 516.231 104.508C516.663 104.508 517.079 104.436 517.479 104.292C517.895 104.148 518.295 103.932 518.679 103.644C519.063 103.356 519.423 103.004 519.759 102.588L521.127 104.268C520.615 104.988 519.879 105.58 518.919 106.044C517.975 106.508 516.991 106.74 515.967 106.74ZM525.859 106.5V88.74H528.331V96.492L527.899 96.78C528.059 96.22 528.371 95.708 528.835 95.244C529.299 94.764 529.851 94.38 530.491 94.092C531.131 93.788 531.787 93.636 532.459 93.636C533.419 93.636 534.219 93.828 534.859 94.212C535.499 94.58 535.979 95.148 536.299 95.916C536.619 96.684 536.779 97.652 536.779 98.82V106.5H534.307V98.988C534.307 98.268 534.211 97.676 534.019 97.212C533.827 96.732 533.531 96.388 533.131 96.18C532.731 95.956 532.235 95.86 531.643 95.892C531.163 95.892 530.723 95.972 530.323 96.132C529.923 96.276 529.571 96.484 529.267 96.756C528.979 97.028 528.747 97.348 528.571 97.716C528.411 98.068 528.331 98.452 528.331 98.868V106.5H527.107C526.899 106.5 526.691 106.5 526.483 106.5C526.275 106.5 526.067 106.5 525.859 106.5ZM542.533 106.5V93.9H545.005V96.492L544.573 96.78C544.733 96.22 545.045 95.708 545.509 95.244C545.973 94.764 546.525 94.38 547.165 94.092C547.805 93.788 548.461 93.636 549.133 93.636C550.093 93.636 550.893 93.828 551.533 94.212C552.173 94.58 552.653 95.148 552.973 95.916C553.293 96.684 553.453 97.652 553.453 98.82V106.5H550.981V98.988C550.981 98.268 550.885 97.676 550.693 97.212C550.501 96.732 550.205 96.388 549.805 96.18C549.405 95.956 548.909 95.86 548.317 95.892C547.837 95.892 547.397 95.972 546.997 96.132C546.597 96.276 546.245 96.484 545.941 96.756C545.653 97.028 545.421 97.348 545.245 97.716C545.085 98.068 545.005 98.452 545.005 98.868V106.5H543.781C543.573 106.5 543.365 106.5 543.157 106.5C542.949 106.5 542.741 106.5 542.533 106.5ZM559.614 106.5V93.9H562.086V106.5H559.614ZM560.814 91.116C560.286 91.116 559.878 90.98 559.59 90.708C559.302 90.436 559.158 90.052 559.158 89.556C559.158 89.092 559.302 88.716 559.59 88.428C559.894 88.14 560.302 87.996 560.814 87.996C561.342 87.996 561.75 88.132 562.038 88.404C562.326 88.676 562.47 89.06 562.47 89.556C562.47 90.02 562.318 90.396 562.014 90.684C561.726 90.972 561.326 91.116 560.814 91.116ZM573.638 106.74C572.47 106.74 571.422 106.452 570.494 105.876C569.582 105.3 568.854 104.516 568.31 103.524C567.782 102.532 567.518 101.42 567.518 100.188C567.518 98.956 567.782 97.844 568.31 96.852C568.854 95.86 569.582 95.076 570.494 94.5C571.422 93.924 572.47 93.636 573.638 93.636C574.758 93.636 575.774 93.868 576.686 94.332C577.614 94.78 578.318 95.396 578.798 96.18L577.43 97.86C577.174 97.492 576.846 97.156 576.446 96.852C576.046 96.548 575.622 96.308 575.174 96.132C574.726 95.956 574.294 95.868 573.878 95.868C573.11 95.868 572.422 96.06 571.814 96.444C571.222 96.812 570.75 97.324 570.398 97.98C570.046 98.636 569.87 99.372 569.87 100.188C569.87 101.004 570.054 101.74 570.422 102.396C570.79 103.036 571.278 103.548 571.886 103.932C572.494 104.316 573.166 104.508 573.902 104.508C574.334 104.508 574.75 104.436 575.15 104.292C575.566 104.148 575.966 103.932 576.35 103.644C576.734 103.356 577.094 103.004 577.43 102.588L578.798 104.268C578.286 104.988 577.55 105.58 576.59 106.044C575.646 106.508 574.662 106.74 573.638 106.74ZM588.378 106.74C587.338 106.74 586.386 106.452 585.522 105.876C584.674 105.3 583.994 104.516 583.482 103.524C582.97 102.532 582.714 101.412 582.714 100.164C582.714 98.9 582.97 97.78 583.482 96.804C584.01 95.812 584.714 95.036 585.594 94.476C586.49 93.916 587.49 93.636 588.594 93.636C589.25 93.636 589.85 93.732 590.394 93.924C590.938 94.116 591.41 94.388 591.81 94.74C592.226 95.076 592.562 95.468 592.818 95.916C593.09 96.364 593.258 96.844 593.322 97.356L592.77 97.164V93.9H595.266V106.5H592.77V103.5L593.346 103.332C593.25 103.764 593.05 104.188 592.746 104.604C592.458 105.004 592.082 105.364 591.618 105.684C591.17 106.004 590.666 106.26 590.106 106.452C589.562 106.644 588.986 106.74 588.378 106.74ZM589.026 104.46C589.778 104.46 590.442 104.276 591.018 103.908C591.594 103.54 592.042 103.036 592.362 102.396C592.698 101.74 592.866 100.996 592.866 100.164C592.866 99.348 592.698 98.62 592.362 97.98C592.042 97.34 591.594 96.836 591.018 96.468C590.442 96.1 589.778 95.916 589.026 95.916C588.29 95.916 587.634 96.1 587.058 96.468C586.498 96.836 586.05 97.34 585.714 97.98C585.394 98.62 585.234 99.348 585.234 100.164C585.234 100.996 585.394 101.74 585.714 102.396C586.05 103.036 586.498 103.54 587.058 103.908C587.634 104.276 588.29 104.46 589.026 104.46ZM601.165 106.5V88.74H603.637V106.5H601.165ZM456.41 136.5V119.7H463.25C464.162 119.7 464.986 119.932 465.722 120.396C466.474 120.844 467.074 121.46 467.522 122.244C467.97 123.028 468.194 123.9 468.194 124.86C468.194 125.82 467.97 126.692 467.522 127.476C467.074 128.26 466.474 128.892 465.722 129.372C464.986 129.836 464.162 130.068 463.25 130.068H459.002V136.5H456.41ZM459.002 127.572H463.202C463.634 127.572 464.026 127.452 464.378 127.212C464.73 126.956 465.01 126.628 465.218 126.228C465.442 125.812 465.554 125.356 465.554 124.86C465.554 124.364 465.442 123.916 465.218 123.516C465.01 123.116 464.73 122.796 464.378 122.556C464.026 122.316 463.634 122.196 463.202 122.196H459.002V127.572ZM473.397 136.5V123.9H475.893V127.86L475.653 126.9C475.829 126.292 476.125 125.74 476.541 125.244C476.973 124.748 477.461 124.356 478.005 124.068C478.565 123.78 479.141 123.636 479.733 123.636C480.005 123.636 480.261 123.66 480.501 123.708C480.757 123.756 480.957 123.812 481.101 123.876L480.453 126.564C480.261 126.484 480.045 126.42 479.805 126.372C479.581 126.308 479.357 126.276 479.133 126.276C478.701 126.276 478.285 126.364 477.885 126.54C477.501 126.7 477.157 126.932 476.853 127.236C476.565 127.524 476.333 127.868 476.157 128.268C475.981 128.652 475.893 129.076 475.893 129.54V136.5H473.397ZM490.817 136.74C489.521 136.74 488.369 136.468 487.361 135.924C486.369 135.364 485.585 134.604 485.009 133.644C484.449 132.684 484.169 131.58 484.169 130.332C484.169 129.34 484.329 128.436 484.649 127.62C484.969 126.804 485.409 126.1 485.969 125.508C486.545 124.9 487.225 124.436 488.009 124.116C488.809 123.78 489.673 123.612 490.601 123.612C491.417 123.612 492.177 123.772 492.881 124.092C493.585 124.396 494.193 124.82 494.705 125.364C495.233 125.908 495.633 126.556 495.905 127.308C496.193 128.044 496.329 128.852 496.313 129.732L496.289 130.788H485.993L485.441 128.82H494.153L493.793 129.228V128.652C493.745 128.124 493.569 127.652 493.265 127.236C492.961 126.82 492.577 126.492 492.113 126.252C491.649 126.012 491.145 125.892 490.601 125.892C489.737 125.892 489.009 126.06 488.417 126.396C487.825 126.716 487.377 127.196 487.073 127.836C486.769 128.46 486.617 129.236 486.617 130.164C486.617 131.044 486.801 131.812 487.169 132.468C487.537 133.108 488.057 133.604 488.729 133.956C489.401 134.308 490.177 134.484 491.057 134.484C491.681 134.484 492.257 134.38 492.785 134.172C493.329 133.964 493.913 133.588 494.537 133.044L495.785 134.796C495.401 135.18 494.929 135.516 494.369 135.804C493.825 136.092 493.241 136.324 492.617 136.5C492.009 136.66 491.409 136.74 490.817 136.74ZM501.4 141.78V123.9H503.896V126.78L503.512 126.564C503.608 126.084 503.88 125.628 504.328 125.196C504.776 124.748 505.32 124.388 505.96 124.116C506.616 123.828 507.288 123.684 507.976 123.684C509.112 123.684 510.12 123.964 511 124.524C511.88 125.084 512.576 125.852 513.088 126.828C513.6 127.804 513.856 128.924 513.856 130.188C513.856 131.436 513.6 132.556 513.088 133.548C512.592 134.524 511.904 135.3 511.024 135.876C510.144 136.436 509.152 136.716 508.048 136.716C507.312 136.716 506.6 136.572 505.912 136.284C505.224 135.98 504.64 135.596 504.16 135.132C503.68 134.668 503.384 134.188 503.272 133.692L503.896 133.356V141.78H501.4ZM507.64 134.436C508.376 134.436 509.032 134.252 509.608 133.884C510.184 133.516 510.64 133.012 510.976 132.372C511.312 131.732 511.48 131.004 511.48 130.188C511.48 129.372 511.312 128.652 510.976 128.028C510.656 127.388 510.208 126.884 509.632 126.516C509.056 126.148 508.392 125.964 507.64 125.964C506.888 125.964 506.224 126.148 505.648 126.516C505.072 126.868 504.616 127.364 504.28 128.004C503.944 128.644 503.776 129.372 503.776 130.188C503.776 131.004 503.944 131.732 504.28 132.372C504.616 133.012 505.072 133.516 505.648 133.884C506.224 134.252 506.888 134.436 507.64 134.436ZM523.789 136.74C522.749 136.74 521.797 136.452 520.933 135.876C520.085 135.3 519.405 134.516 518.893 133.524C518.381 132.532 518.125 131.412 518.125 130.164C518.125 128.9 518.381 127.78 518.893 126.804C519.421 125.812 520.125 125.036 521.005 124.476C521.901 123.916 522.901 123.636 524.005 123.636C524.661 123.636 525.261 123.732 525.805 123.924C526.349 124.116 526.821 124.388 527.221 124.74C527.637 125.076 527.973 125.468 528.229 125.916C528.501 126.364 528.669 126.844 528.733 127.356L528.181 127.164V123.9H530.677V136.5H528.181V133.5L528.757 133.332C528.661 133.764 528.461 134.188 528.157 134.604C527.869 135.004 527.493 135.364 527.029 135.684C526.581 136.004 526.077 136.26 525.517 136.452C524.973 136.644 524.397 136.74 523.789 136.74ZM524.437 134.46C525.189 134.46 525.853 134.276 526.429 133.908C527.005 133.54 527.453 133.036 527.773 132.396C528.109 131.74 528.277 130.996 528.277 130.164C528.277 129.348 528.109 128.62 527.773 127.98C527.453 127.34 527.005 126.836 526.429 126.468C525.853 126.1 525.189 125.916 524.437 125.916C523.701 125.916 523.045 126.1 522.469 126.468C521.909 126.836 521.461 127.34 521.125 127.98C520.805 128.62 520.645 129.348 520.645 130.164C520.645 130.996 520.805 131.74 521.125 132.396C521.461 133.036 521.909 133.54 522.469 133.908C523.045 134.276 523.701 134.46 524.437 134.46ZM536.528 136.5V123.9H539.024V127.86L538.784 126.9C538.96 126.292 539.256 125.74 539.672 125.244C540.104 124.748 540.592 124.356 541.136 124.068C541.696 123.78 542.272 123.636 542.864 123.636C543.136 123.636 543.392 123.66 543.632 123.708C543.888 123.756 544.088 123.812 544.232 123.876L543.584 126.564C543.392 126.484 543.176 126.42 542.936 126.372C542.712 126.308 542.488 126.276 542.264 126.276C541.832 126.276 541.416 126.364 541.016 126.54C540.632 126.7 540.288 126.932 539.984 127.236C539.696 127.524 539.464 127.868 539.288 128.268C539.112 128.652 539.024 129.076 539.024 129.54V136.5H536.528ZM552.917 136.74C551.877 136.74 550.925 136.452 550.061 135.876C549.213 135.3 548.533 134.516 548.021 133.524C547.509 132.532 547.253 131.412 547.253 130.164C547.253 128.9 547.509 127.78 548.021 126.804C548.549 125.812 549.253 125.036 550.133 124.476C551.029 123.916 552.029 123.636 553.133 123.636C553.789 123.636 554.389 123.732 554.933 123.924C555.477 124.116 555.949 124.388 556.349 124.74C556.765 125.076 557.101 125.468 557.357 125.916C557.629 126.364 557.797 126.844 557.861 127.356L557.309 127.164V123.9H559.805V136.5H557.309V133.5L557.885 133.332C557.789 133.764 557.589 134.188 557.285 134.604C556.997 135.004 556.621 135.364 556.157 135.684C555.709 136.004 555.205 136.26 554.645 136.452C554.101 136.644 553.525 136.74 552.917 136.74ZM553.565 134.46C554.317 134.46 554.981 134.276 555.557 133.908C556.133 133.54 556.581 133.036 556.901 132.396C557.237 131.74 557.405 130.996 557.405 130.164C557.405 129.348 557.237 128.62 556.901 127.98C556.581 127.34 556.133 126.836 555.557 126.468C554.981 126.1 554.317 125.916 553.565 125.916C552.829 125.916 552.173 126.1 551.597 126.468C551.037 126.836 550.589 127.34 550.253 127.98C549.933 128.62 549.773 129.348 549.773 130.164C549.773 130.996 549.933 131.74 550.253 132.396C550.589 133.036 551.037 133.54 551.597 133.908C552.173 134.276 552.829 134.46 553.565 134.46ZM567.216 136.5V120.684H569.688V136.5H567.216ZM564.6 126.3V123.9H572.616V126.3H564.6ZM577.675 136.5V123.9H580.147V136.5H577.675ZM578.875 121.116C578.347 121.116 577.939 120.98 577.651 120.708C577.363 120.436 577.219 120.052 577.219 119.556C577.219 119.092 577.363 118.716 577.651 118.428C577.955 118.14 578.363 117.996 578.875 117.996C579.403 117.996 579.811 118.132 580.099 118.404C580.387 118.676 580.531 119.06 580.531 119.556C580.531 120.02 580.379 120.396 580.075 120.684C579.787 120.972 579.387 121.116 578.875 121.116ZM592.011 136.74C590.779 136.74 589.675 136.46 588.699 135.9C587.739 135.324 586.979 134.548 586.419 133.572C585.859 132.58 585.579 131.452 585.579 130.188C585.579 128.924 585.859 127.804 586.419 126.828C586.979 125.836 587.739 125.06 588.699 124.5C589.675 123.924 590.779 123.636 592.011 123.636C593.227 123.636 594.315 123.924 595.275 124.5C596.251 125.06 597.019 125.836 597.579 126.828C598.139 127.804 598.419 128.924 598.419 130.188C598.419 131.452 598.139 132.58 597.579 133.572C597.019 134.548 596.251 135.324 595.275 135.9C594.315 136.46 593.227 136.74 592.011 136.74ZM592.011 134.484C592.763 134.484 593.435 134.3 594.027 133.932C594.619 133.548 595.083 133.036 595.419 132.396C595.755 131.74 595.915 131.004 595.899 130.188C595.915 129.356 595.755 128.62 595.419 127.98C595.083 127.324 594.619 126.812 594.027 126.444C593.435 126.076 592.763 125.892 592.011 125.892C591.259 125.892 590.579 126.084 589.971 126.468C589.379 126.836 588.915 127.348 588.579 128.004C588.243 128.644 588.083 129.372 588.099 130.188C588.083 131.004 588.243 131.74 588.579 132.396C588.915 133.036 589.379 133.548 589.971 133.932C590.579 134.3 591.259 134.484 592.011 134.484ZM603.512 136.5V123.9H605.984V126.492L605.552 126.78C605.712 126.22 606.024 125.708 606.488 125.244C606.952 124.764 607.504 124.38 608.144 124.092C608.784 123.788 609.44 123.636 610.112 123.636C611.072 123.636 611.872 123.828 612.512 124.212C613.152 124.58 613.632 125.148 613.952 125.916C614.272 126.684 614.432 127.652 614.432 128.82V136.5H611.96V128.988C611.96 128.268 611.864 127.676 611.672 127.212C611.48 126.732 611.184 126.388 610.784 126.18C610.384 125.956 609.888 125.86 609.296 125.892C608.816 125.892 608.376 125.972 607.976 126.132C607.576 126.276 607.224 126.484 606.92 126.756C606.632 127.028 606.4 127.348 606.224 127.716C606.064 128.068 605.984 128.452 605.984 128.868V136.5H604.76C604.552 136.5 604.344 136.5 604.136 136.5C603.928 136.5 603.72 136.5 603.512 136.5ZM624.386 136.74C623.33 136.74 622.378 136.556 621.53 136.188C620.682 135.82 619.978 135.276 619.418 134.556L621.098 133.116C621.578 133.676 622.098 134.084 622.658 134.34C623.234 134.58 623.882 134.7 624.602 134.7C624.89 134.7 625.154 134.668 625.394 134.604C625.65 134.524 625.866 134.412 626.042 134.268C626.234 134.124 626.378 133.956 626.474 133.764C626.57 133.556 626.618 133.332 626.618 133.092C626.618 132.676 626.466 132.34 626.162 132.084C626.002 131.972 625.746 131.852 625.394 131.724C625.058 131.58 624.618 131.436 624.074 131.292C623.146 131.052 622.386 130.78 621.794 130.476C621.202 130.172 620.746 129.828 620.426 129.444C620.186 129.14 620.01 128.812 619.898 128.46C619.786 128.092 619.73 127.692 619.73 127.26C619.73 126.732 619.842 126.252 620.066 125.82C620.306 125.372 620.626 124.988 621.026 124.668C621.442 124.332 621.922 124.076 622.466 123.9C623.026 123.724 623.618 123.636 624.242 123.636C624.834 123.636 625.418 123.716 625.994 123.876C626.586 124.036 627.13 124.268 627.626 124.572C628.122 124.876 628.538 125.236 628.874 125.652L627.458 127.212C627.154 126.908 626.818 126.644 626.45 126.42C626.098 126.18 625.738 125.996 625.37 125.868C625.002 125.74 624.666 125.676 624.362 125.676C624.026 125.676 623.722 125.708 623.45 125.772C623.178 125.836 622.946 125.932 622.754 126.06C622.578 126.188 622.442 126.348 622.346 126.54C622.25 126.732 622.202 126.948 622.202 127.188C622.218 127.396 622.266 127.596 622.346 127.788C622.442 127.964 622.57 128.116 622.73 128.244C622.906 128.372 623.17 128.508 623.522 128.652C623.874 128.796 624.322 128.932 624.866 129.06C625.666 129.268 626.322 129.5 626.834 129.756C627.362 129.996 627.778 130.276 628.082 130.596C628.402 130.9 628.626 131.252 628.754 131.652C628.882 132.052 628.946 132.5 628.946 132.996C628.946 133.716 628.738 134.364 628.322 134.94C627.922 135.5 627.378 135.94 626.69 136.26C626.002 136.58 625.234 136.74 624.386 136.74Z" fill="black"/>
<rect x="172.5" y="75" width="202" height="75" rx="11" fill="#E1E1E1"/>
<path d="M193.54 122V105.2H200.548C201.62 105.2 202.524 105.36 203.26 105.68C203.996 106 204.548 106.48 204.916 107.12C205.3 107.744 205.492 108.512 205.492 109.424C205.492 110.336 205.236 111.112 204.724 111.752C204.228 112.392 203.532 112.832 202.636 113.072V112.592C203.388 112.752 204.044 113.04 204.604 113.456C205.164 113.856 205.596 114.36 205.9 114.968C206.22 115.576 206.38 116.272 206.38 117.056C206.38 117.856 206.252 118.568 205.996 119.192C205.756 119.8 205.388 120.312 204.892 120.728C204.412 121.144 203.828 121.464 203.14 121.688C202.452 121.896 201.668 122 200.788 122H193.54ZM196.132 119.504H200.644C201.3 119.504 201.852 119.408 202.3 119.216C202.764 119.024 203.116 118.744 203.356 118.376C203.612 117.992 203.74 117.536 203.74 117.008C203.74 116.512 203.604 116.088 203.332 115.736C203.076 115.384 202.708 115.12 202.228 114.944C201.748 114.752 201.18 114.656 200.524 114.656H196.132V119.504ZM196.132 112.16H200.404C200.884 112.16 201.308 112.064 201.676 111.872C202.06 111.68 202.356 111.416 202.564 111.08C202.788 110.744 202.9 110.36 202.9 109.928C202.9 109.208 202.66 108.656 202.18 108.272C201.7 107.888 201.012 107.696 200.116 107.696H196.132V112.16ZM216.477 122.24C215.437 122.24 214.485 121.952 213.621 121.376C212.773 120.8 212.093 120.016 211.581 119.024C211.069 118.032 210.813 116.912 210.813 115.664C210.813 114.4 211.069 113.28 211.581 112.304C212.109 111.312 212.813 110.536 213.693 109.976C214.589 109.416 215.589 109.136 216.693 109.136C217.349 109.136 217.949 109.232 218.493 109.424C219.037 109.616 219.509 109.888 219.909 110.24C220.325 110.576 220.661 110.968 220.917 111.416C221.189 111.864 221.357 112.344 221.421 112.856L220.869 112.664V109.4H223.365V122H220.869V119L221.445 118.832C221.349 119.264 221.149 119.688 220.845 120.104C220.557 120.504 220.181 120.864 219.717 121.184C219.269 121.504 218.765 121.76 218.205 121.952C217.661 122.144 217.085 122.24 216.477 122.24ZM217.125 119.96C217.877 119.96 218.541 119.776 219.117 119.408C219.693 119.04 220.141 118.536 220.461 117.896C220.797 117.24 220.965 116.496 220.965 115.664C220.965 114.848 220.797 114.12 220.461 113.48C220.141 112.84 219.693 112.336 219.117 111.968C218.541 111.6 217.877 111.416 217.125 111.416C216.389 111.416 215.733 111.6 215.157 111.968C214.597 112.336 214.149 112.84 213.813 113.48C213.493 114.12 213.333 114.848 213.333 115.664C213.333 116.496 213.493 117.24 213.813 117.896C214.149 118.536 214.597 119.04 215.157 119.408C215.733 119.776 216.389 119.96 217.125 119.96ZM234.568 122.24C233.4 122.24 232.352 121.952 231.424 121.376C230.512 120.8 229.784 120.016 229.24 119.024C228.712 118.032 228.448 116.92 228.448 115.688C228.448 114.456 228.712 113.344 229.24 112.352C229.784 111.36 230.512 110.576 231.424 110C232.352 109.424 233.4 109.136 234.568 109.136C235.688 109.136 236.704 109.368 237.616 109.832C238.544 110.28 239.248 110.896 239.728 111.68L238.36 113.36C238.104 112.992 237.776 112.656 237.376 112.352C236.976 112.048 236.552 111.808 236.104 111.632C235.656 111.456 235.224 111.368 234.808 111.368C234.04 111.368 233.352 111.56 232.744 111.944C232.152 112.312 231.68 112.824 231.328 113.48C230.976 114.136 230.8 114.872 230.8 115.688C230.8 116.504 230.984 117.24 231.352 117.896C231.72 118.536 232.208 119.048 232.816 119.432C233.424 119.816 234.096 120.008 234.832 120.008C235.264 120.008 235.68 119.936 236.08 119.792C236.496 119.648 236.896 119.432 237.28 119.144C237.664 118.856 238.024 118.504 238.36 118.088L239.728 119.768C239.216 120.488 238.48 121.08 237.52 121.544C236.576 122.008 235.592 122.24 234.568 122.24ZM246.716 118.064L246.596 115.376L252.62 109.4H255.956L246.716 118.064ZM244.46 122V104.24H246.932V122H244.46ZM252.956 122L248.204 116.456L249.956 114.848L256.124 122H252.956ZM265.672 127.52C264.776 127.52 263.88 127.376 262.984 127.088C262.104 126.816 261.392 126.456 260.848 126.008L261.76 124.088C262.08 124.328 262.456 124.536 262.888 124.712C263.32 124.904 263.776 125.048 264.256 125.144C264.736 125.256 265.208 125.312 265.672 125.312C266.552 125.312 267.288 125.168 267.88 124.88C268.472 124.592 268.92 124.168 269.224 123.608C269.528 123.048 269.68 122.352 269.68 121.52V119.096L269.944 119.264C269.864 119.76 269.6 120.24 269.152 120.704C268.72 121.152 268.176 121.52 267.52 121.808C266.864 122.096 266.192 122.24 265.504 122.24C264.304 122.24 263.232 121.96 262.288 121.4C261.36 120.824 260.624 120.048 260.08 119.072C259.536 118.08 259.264 116.952 259.264 115.688C259.264 114.424 259.528 113.304 260.056 112.328C260.6 111.336 261.336 110.56 262.264 110C263.208 109.424 264.264 109.136 265.432 109.136C265.912 109.136 266.376 109.2 266.824 109.328C267.272 109.44 267.688 109.608 268.072 109.832C268.456 110.04 268.8 110.272 269.104 110.528C269.408 110.784 269.656 111.056 269.848 111.344C270.04 111.632 270.16 111.904 270.208 112.16L269.68 112.352V109.4H272.152V121.232C272.152 122.24 272 123.128 271.696 123.896C271.408 124.68 270.984 125.336 270.424 125.864C269.864 126.408 269.184 126.816 268.384 127.088C267.584 127.376 266.68 127.52 265.672 127.52ZM265.768 119.96C266.552 119.96 267.248 119.776 267.856 119.408C268.464 119.04 268.936 118.536 269.272 117.896C269.608 117.256 269.776 116.52 269.776 115.688C269.776 114.856 269.6 114.12 269.248 113.48C268.912 112.824 268.44 112.312 267.832 111.944C267.24 111.576 266.552 111.392 265.768 111.392C265 111.392 264.312 111.584 263.704 111.968C263.112 112.336 262.64 112.848 262.288 113.504C261.952 114.144 261.784 114.872 261.784 115.688C261.784 116.504 261.952 117.24 262.288 117.896C262.64 118.536 263.112 119.04 263.704 119.408C264.312 119.776 265 119.96 265.768 119.96ZM278.018 122V109.4H280.514V113.36L280.274 112.4C280.45 111.792 280.746 111.24 281.162 110.744C281.594 110.248 282.082 109.856 282.626 109.568C283.186 109.28 283.762 109.136 284.354 109.136C284.626 109.136 284.882 109.16 285.122 109.208C285.378 109.256 285.578 109.312 285.722 109.376L285.074 112.064C284.882 111.984 284.666 111.92 284.426 111.872C284.202 111.808 283.978 111.776 283.754 111.776C283.322 111.776 282.906 111.864 282.506 112.04C282.122 112.2 281.778 112.432 281.474 112.736C281.186 113.024 280.954 113.368 280.778 113.768C280.602 114.152 280.514 114.576 280.514 115.04V122H278.018ZM295.222 122.24C293.99 122.24 292.886 121.96 291.91 121.4C290.95 120.824 290.19 120.048 289.63 119.072C289.07 118.08 288.79 116.952 288.79 115.688C288.79 114.424 289.07 113.304 289.63 112.328C290.19 111.336 290.95 110.56 291.91 110C292.886 109.424 293.99 109.136 295.222 109.136C296.438 109.136 297.526 109.424 298.486 110C299.462 110.56 300.23 111.336 300.79 112.328C301.35 113.304 301.63 114.424 301.63 115.688C301.63 116.952 301.35 118.08 300.79 119.072C300.23 120.048 299.462 120.824 298.486 121.4C297.526 121.96 296.438 122.24 295.222 122.24ZM295.222 119.984C295.974 119.984 296.646 119.8 297.238 119.432C297.83 119.048 298.294 118.536 298.63 117.896C298.966 117.24 299.126 116.504 299.11 115.688C299.126 114.856 298.966 114.12 298.63 113.48C298.294 112.824 297.83 112.312 297.238 111.944C296.646 111.576 295.974 111.392 295.222 111.392C294.47 111.392 293.79 111.584 293.182 111.968C292.59 112.336 292.126 112.848 291.79 113.504C291.454 114.144 291.294 114.872 291.31 115.688C291.294 116.504 291.454 117.24 291.79 117.896C292.126 118.536 292.59 119.048 293.182 119.432C293.79 119.8 294.47 119.984 295.222 119.984ZM311.14 122.24C310.244 122.24 309.46 122.032 308.788 121.616C308.132 121.2 307.62 120.616 307.252 119.864C306.9 119.112 306.724 118.216 306.724 117.176V109.4H309.196V116.504C309.196 117.24 309.308 117.88 309.532 118.424C309.772 118.952 310.108 119.36 310.54 119.648C310.988 119.936 311.524 120.08 312.148 120.08C312.612 120.08 313.036 120.008 313.42 119.864C313.804 119.704 314.132 119.488 314.404 119.216C314.692 118.944 314.916 118.616 315.076 118.232C315.236 117.848 315.316 117.432 315.316 116.984V109.4H317.788V122H315.316V119.36L315.748 119.072C315.556 119.664 315.228 120.2 314.764 120.68C314.316 121.16 313.78 121.544 313.156 121.832C312.532 122.104 311.86 122.24 311.14 122.24ZM323.655 122V109.4H326.127V111.992L325.695 112.28C325.855 111.72 326.167 111.208 326.631 110.744C327.095 110.264 327.647 109.88 328.287 109.592C328.927 109.288 329.583 109.136 330.255 109.136C331.215 109.136 332.015 109.328 332.655 109.712C333.295 110.08 333.775 110.648 334.095 111.416C334.415 112.184 334.575 113.152 334.575 114.32V122H332.103V114.488C332.103 113.768 332.007 113.176 331.815 112.712C331.623 112.232 331.327 111.888 330.927 111.68C330.527 111.456 330.031 111.36 329.439 111.392C328.959 111.392 328.519 111.472 328.119 111.632C327.719 111.776 327.367 111.984 327.063 112.256C326.775 112.528 326.543 112.848 326.367 113.216C326.207 113.568 326.127 113.952 326.127 114.368V122H324.903C324.695 122 324.487 122 324.279 122C324.071 122 323.863 122 323.655 122ZM345.585 122.24C344.433 122.24 343.401 121.96 342.489 121.4C341.593 120.824 340.881 120.048 340.353 119.072C339.825 118.08 339.561 116.952 339.561 115.688C339.561 114.424 339.817 113.304 340.329 112.328C340.857 111.336 341.569 110.56 342.465 110C343.361 109.424 344.377 109.136 345.513 109.136C346.137 109.136 346.737 109.24 347.313 109.448C347.905 109.64 348.433 109.912 348.897 110.264C349.361 110.6 349.721 110.976 349.977 111.392C350.249 111.792 350.385 112.2 350.385 112.616L349.665 112.664V104.24H352.137V122H349.665V119H350.145C350.145 119.384 350.017 119.768 349.761 120.152C349.505 120.52 349.161 120.864 348.729 121.184C348.313 121.504 347.825 121.76 347.265 121.952C346.721 122.144 346.161 122.24 345.585 122.24ZM345.921 120.104C346.673 120.104 347.337 119.912 347.913 119.528C348.489 119.144 348.937 118.624 349.257 117.968C349.593 117.296 349.761 116.536 349.761 115.688C349.761 114.84 349.593 114.088 349.257 113.432C348.937 112.76 348.489 112.232 347.913 111.848C347.337 111.464 346.673 111.272 345.921 111.272C345.169 111.272 344.505 111.464 343.929 111.848C343.353 112.232 342.897 112.76 342.561 113.432C342.241 114.088 342.081 114.84 342.081 115.688C342.081 116.536 342.241 117.296 342.561 117.968C342.897 118.624 343.353 119.144 343.929 119.528C344.505 119.912 345.169 120.104 345.921 120.104Z" fill="black"/>
<rect x="1244.5" y="75" width="200" height="75" rx="11" fill="#FCF1CC"/>
<path d="M1274.96 122V105.2H1281.54C1282.74 105.2 1283.82 105.4 1284.78 105.8C1285.75 106.2 1286.59 106.776 1287.27 107.528C1287.96 108.28 1288.49 109.168 1288.86 110.192C1289.23 111.216 1289.41 112.352 1289.41 113.6C1289.41 114.848 1289.23 115.992 1288.86 117.032C1288.49 118.056 1287.96 118.944 1287.27 119.696C1286.6 120.432 1285.78 121 1284.8 121.4C1283.83 121.8 1282.74 122 1281.54 122H1274.96ZM1277.55 119.768L1277.48 119.504H1281.42C1282.27 119.504 1283.02 119.368 1283.67 119.096C1284.35 118.824 1284.91 118.44 1285.35 117.944C1285.82 117.432 1286.17 116.808 1286.41 116.072C1286.65 115.336 1286.77 114.512 1286.77 113.6C1286.77 112.688 1286.65 111.872 1286.41 111.152C1286.17 110.416 1285.82 109.792 1285.35 109.28C1284.89 108.768 1284.33 108.376 1283.67 108.104C1283.02 107.832 1282.27 107.696 1281.42 107.696H1277.41L1277.55 107.48V119.768ZM1295.1 122V109.4H1297.57V122H1295.1ZM1296.3 106.616C1295.77 106.616 1295.36 106.48 1295.08 106.208C1294.79 105.936 1294.64 105.552 1294.64 105.056C1294.64 104.592 1294.79 104.216 1295.08 103.928C1295.38 103.64 1295.79 103.496 1296.3 103.496C1296.83 103.496 1297.24 103.632 1297.52 103.904C1297.81 104.176 1297.96 104.56 1297.96 105.056C1297.96 105.52 1297.8 105.896 1297.5 106.184C1297.21 106.472 1296.81 106.616 1296.3 106.616ZM1307.97 122.24C1306.91 122.24 1305.96 122.056 1305.11 121.688C1304.27 121.32 1303.56 120.776 1303 120.056L1304.68 118.616C1305.16 119.176 1305.68 119.584 1306.24 119.84C1306.82 120.08 1307.47 120.2 1308.19 120.2C1308.47 120.2 1308.74 120.168 1308.98 120.104C1309.23 120.024 1309.45 119.912 1309.63 119.768C1309.82 119.624 1309.96 119.456 1310.06 119.264C1310.15 119.056 1310.2 118.832 1310.2 118.592C1310.2 118.176 1310.05 117.84 1309.75 117.584C1309.59 117.472 1309.33 117.352 1308.98 117.224C1308.64 117.08 1308.2 116.936 1307.66 116.792C1306.73 116.552 1305.97 116.28 1305.38 115.976C1304.79 115.672 1304.33 115.328 1304.01 114.944C1303.77 114.64 1303.59 114.312 1303.48 113.96C1303.37 113.592 1303.31 113.192 1303.31 112.76C1303.31 112.232 1303.43 111.752 1303.65 111.32C1303.89 110.872 1304.21 110.488 1304.61 110.168C1305.03 109.832 1305.51 109.576 1306.05 109.4C1306.61 109.224 1307.2 109.136 1307.83 109.136C1308.42 109.136 1309 109.216 1309.58 109.376C1310.17 109.536 1310.71 109.768 1311.21 110.072C1311.71 110.376 1312.12 110.736 1312.46 111.152L1311.04 112.712C1310.74 112.408 1310.4 112.144 1310.03 111.92C1309.68 111.68 1309.32 111.496 1308.95 111.368C1308.59 111.24 1308.25 111.176 1307.95 111.176C1307.61 111.176 1307.31 111.208 1307.03 111.272C1306.76 111.336 1306.53 111.432 1306.34 111.56C1306.16 111.688 1306.03 111.848 1305.93 112.04C1305.83 112.232 1305.79 112.448 1305.79 112.688C1305.8 112.896 1305.85 113.096 1305.93 113.288C1306.03 113.464 1306.15 113.616 1306.31 113.744C1306.49 113.872 1306.75 114.008 1307.11 114.152C1307.46 114.296 1307.91 114.432 1308.45 114.56C1309.25 114.768 1309.91 115 1310.42 115.256C1310.95 115.496 1311.36 115.776 1311.67 116.096C1311.99 116.4 1312.21 116.752 1312.34 117.152C1312.47 117.552 1312.53 118 1312.53 118.496C1312.53 119.216 1312.32 119.864 1311.91 120.44C1311.51 121 1310.96 121.44 1310.27 121.76C1309.59 122.08 1308.82 122.24 1307.97 122.24ZM1323.01 122.24C1321.84 122.24 1320.79 121.952 1319.86 121.376C1318.95 120.8 1318.22 120.016 1317.68 119.024C1317.15 118.032 1316.89 116.92 1316.89 115.688C1316.89 114.456 1317.15 113.344 1317.68 112.352C1318.22 111.36 1318.95 110.576 1319.86 110C1320.79 109.424 1321.84 109.136 1323.01 109.136C1324.13 109.136 1325.14 109.368 1326.06 109.832C1326.98 110.28 1327.69 110.896 1328.17 111.68L1326.8 113.36C1326.54 112.992 1326.22 112.656 1325.82 112.352C1325.42 112.048 1324.99 111.808 1324.54 111.632C1324.1 111.456 1323.66 111.368 1323.25 111.368C1322.48 111.368 1321.79 111.56 1321.18 111.944C1320.59 112.312 1320.12 112.824 1319.77 113.48C1319.42 114.136 1319.24 114.872 1319.24 115.688C1319.24 116.504 1319.42 117.24 1319.79 117.896C1320.16 118.536 1320.65 119.048 1321.26 119.432C1321.86 119.816 1322.54 120.008 1323.27 120.008C1323.7 120.008 1324.12 119.936 1324.52 119.792C1324.94 119.648 1325.34 119.432 1325.72 119.144C1326.1 118.856 1326.46 118.504 1326.8 118.088L1328.17 119.768C1327.66 120.488 1326.92 121.08 1325.96 121.544C1325.02 122.008 1324.03 122.24 1323.01 122.24ZM1337.32 122.24C1336.42 122.24 1335.64 122.032 1334.96 121.616C1334.31 121.2 1333.8 120.616 1333.43 119.864C1333.08 119.112 1332.9 118.216 1332.9 117.176V109.4H1335.37V116.504C1335.37 117.24 1335.48 117.88 1335.71 118.424C1335.95 118.952 1336.28 119.36 1336.72 119.648C1337.16 119.936 1337.7 120.08 1338.32 120.08C1338.79 120.08 1339.21 120.008 1339.6 119.864C1339.98 119.704 1340.31 119.488 1340.58 119.216C1340.87 118.944 1341.09 118.616 1341.25 118.232C1341.41 117.848 1341.49 117.432 1341.49 116.984V109.4H1343.96V122H1341.49V119.36L1341.92 119.072C1341.73 119.664 1341.4 120.2 1340.94 120.68C1340.49 121.16 1339.96 121.544 1339.33 121.832C1338.71 122.104 1338.04 122.24 1337.32 122.24ZM1354.03 122.24C1352.97 122.24 1352.02 122.056 1351.17 121.688C1350.33 121.32 1349.62 120.776 1349.06 120.056L1350.74 118.616C1351.22 119.176 1351.74 119.584 1352.3 119.84C1352.88 120.08 1353.53 120.2 1354.25 120.2C1354.53 120.2 1354.8 120.168 1355.04 120.104C1355.29 120.024 1355.51 119.912 1355.69 119.768C1355.88 119.624 1356.02 119.456 1356.12 119.264C1356.21 119.056 1356.26 118.832 1356.26 118.592C1356.26 118.176 1356.11 117.84 1355.81 117.584C1355.65 117.472 1355.39 117.352 1355.04 117.224C1354.7 117.08 1354.26 116.936 1353.72 116.792C1352.79 116.552 1352.03 116.28 1351.44 115.976C1350.85 115.672 1350.39 115.328 1350.07 114.944C1349.83 114.64 1349.65 114.312 1349.54 113.96C1349.43 113.592 1349.37 113.192 1349.37 112.76C1349.37 112.232 1349.49 111.752 1349.71 111.32C1349.95 110.872 1350.27 110.488 1350.67 110.168C1351.09 109.832 1351.57 109.576 1352.11 109.4C1352.67 109.224 1353.26 109.136 1353.89 109.136C1354.48 109.136 1355.06 109.216 1355.64 109.376C1356.23 109.536 1356.77 109.768 1357.27 110.072C1357.77 110.376 1358.18 110.736 1358.52 111.152L1357.1 112.712C1356.8 112.408 1356.46 112.144 1356.09 111.92C1355.74 111.68 1355.38 111.496 1355.01 111.368C1354.65 111.24 1354.31 111.176 1354.01 111.176C1353.67 111.176 1353.37 111.208 1353.09 111.272C1352.82 111.336 1352.59 111.432 1352.4 111.56C1352.22 111.688 1352.09 111.848 1351.99 112.04C1351.89 112.232 1351.85 112.448 1351.85 112.688C1351.86 112.896 1351.91 113.096 1351.99 113.288C1352.09 113.464 1352.21 113.616 1352.37 113.744C1352.55 113.872 1352.81 114.008 1353.17 114.152C1353.52 114.296 1353.97 114.432 1354.51 114.56C1355.31 114.768 1355.97 115 1356.48 115.256C1357.01 115.496 1357.42 115.776 1357.73 116.096C1358.05 116.4 1358.27 116.752 1358.4 117.152C1358.53 117.552 1358.59 118 1358.59 118.496C1358.59 119.216 1358.38 119.864 1357.97 120.44C1357.57 121 1357.02 121.44 1356.33 121.76C1355.65 122.08 1354.88 122.24 1354.03 122.24ZM1367.91 122.24C1366.86 122.24 1365.91 122.056 1365.06 121.688C1364.21 121.32 1363.51 120.776 1362.95 120.056L1364.63 118.616C1365.11 119.176 1365.63 119.584 1366.19 119.84C1366.76 120.08 1367.41 120.2 1368.13 120.2C1368.42 120.2 1368.68 120.168 1368.92 120.104C1369.18 120.024 1369.39 119.912 1369.57 119.768C1369.76 119.624 1369.91 119.456 1370 119.264C1370.1 119.056 1370.15 118.832 1370.15 118.592C1370.15 118.176 1369.99 117.84 1369.69 117.584C1369.53 117.472 1369.27 117.352 1368.92 117.224C1368.59 117.08 1368.15 116.936 1367.6 116.792C1366.67 116.552 1365.91 116.28 1365.32 115.976C1364.73 115.672 1364.27 115.328 1363.95 114.944C1363.71 114.64 1363.54 114.312 1363.43 113.96C1363.31 113.592 1363.26 113.192 1363.26 112.76C1363.26 112.232 1363.37 111.752 1363.59 111.32C1363.83 110.872 1364.15 110.488 1364.55 110.168C1364.97 109.832 1365.45 109.576 1365.99 109.4C1366.55 109.224 1367.15 109.136 1367.77 109.136C1368.36 109.136 1368.95 109.216 1369.52 109.376C1370.11 109.536 1370.66 109.768 1371.15 110.072C1371.65 110.376 1372.07 110.736 1372.4 111.152L1370.99 112.712C1370.68 112.408 1370.35 112.144 1369.98 111.92C1369.63 111.68 1369.27 111.496 1368.9 111.368C1368.53 111.24 1368.19 111.176 1367.89 111.176C1367.55 111.176 1367.25 111.208 1366.98 111.272C1366.71 111.336 1366.47 111.432 1366.28 111.56C1366.11 111.688 1365.97 111.848 1365.87 112.04C1365.78 112.232 1365.73 112.448 1365.73 112.688C1365.75 112.896 1365.79 113.096 1365.87 113.288C1365.97 113.464 1366.1 113.616 1366.26 113.744C1366.43 113.872 1366.7 114.008 1367.05 114.152C1367.4 114.296 1367.85 114.432 1368.39 114.56C1369.19 114.768 1369.85 115 1370.36 115.256C1370.89 115.496 1371.31 115.776 1371.61 116.096C1371.93 116.4 1372.15 116.752 1372.28 117.152C1372.41 117.552 1372.47 118 1372.47 118.496C1372.47 119.216 1372.27 119.864 1371.85 120.44C1371.45 121 1370.91 121.44 1370.22 121.76C1369.53 122.08 1368.76 122.24 1367.91 122.24ZM1378.01 122V109.4H1380.48V122H1378.01ZM1379.21 106.616C1378.68 106.616 1378.27 106.48 1377.98 106.208C1377.7 105.936 1377.55 105.552 1377.55 105.056C1377.55 104.592 1377.7 104.216 1377.98 103.928C1378.29 103.64 1378.7 103.496 1379.21 103.496C1379.74 103.496 1380.14 103.632 1380.43 103.904C1380.72 104.176 1380.86 104.56 1380.86 105.056C1380.86 105.52 1380.71 105.896 1380.41 106.184C1380.12 106.472 1379.72 106.616 1379.21 106.616ZM1392.34 122.24C1391.11 122.24 1390.01 121.96 1389.03 121.4C1388.07 120.824 1387.31 120.048 1386.75 119.072C1386.19 118.08 1385.91 116.952 1385.91 115.688C1385.91 114.424 1386.19 113.304 1386.75 112.328C1387.31 111.336 1388.07 110.56 1389.03 110C1390.01 109.424 1391.11 109.136 1392.34 109.136C1393.56 109.136 1394.65 109.424 1395.61 110C1396.58 110.56 1397.35 111.336 1397.91 112.328C1398.47 113.304 1398.75 114.424 1398.75 115.688C1398.75 116.952 1398.47 118.08 1397.91 119.072C1397.35 120.048 1396.58 120.824 1395.61 121.4C1394.65 121.96 1393.56 122.24 1392.34 122.24ZM1392.34 119.984C1393.09 119.984 1393.77 119.8 1394.36 119.432C1394.95 119.048 1395.41 118.536 1395.75 117.896C1396.09 117.24 1396.25 116.504 1396.23 115.688C1396.25 114.856 1396.09 114.12 1395.75 113.48C1395.41 112.824 1394.95 112.312 1394.36 111.944C1393.77 111.576 1393.09 111.392 1392.34 111.392C1391.59 111.392 1390.91 111.584 1390.3 111.968C1389.71 112.336 1389.25 112.848 1388.91 113.504C1388.57 114.144 1388.41 114.872 1388.43 115.688C1388.41 116.504 1388.57 117.24 1388.91 117.896C1389.25 118.536 1389.71 119.048 1390.3 119.432C1390.91 119.8 1391.59 119.984 1392.34 119.984ZM1403.84 122V109.4H1406.32V111.992L1405.88 112.28C1406.04 111.72 1406.36 111.208 1406.82 110.744C1407.28 110.264 1407.84 109.88 1408.48 109.592C1409.12 109.288 1409.77 109.136 1410.44 109.136C1411.4 109.136 1412.2 109.328 1412.84 109.712C1413.48 110.08 1413.96 110.648 1414.28 111.416C1414.6 112.184 1414.76 113.152 1414.76 114.32V122H1412.29V114.488C1412.29 113.768 1412.2 113.176 1412 112.712C1411.81 112.232 1411.52 111.888 1411.12 111.68C1410.72 111.456 1410.22 111.36 1409.63 111.392C1409.15 111.392 1408.71 111.472 1408.31 111.632C1407.91 111.776 1407.56 111.984 1407.25 112.256C1406.96 112.528 1406.73 112.848 1406.56 113.216C1406.4 113.568 1406.32 113.952 1406.32 114.368V122H1405.09C1404.88 122 1404.68 122 1404.47 122C1404.26 122 1404.05 122 1403.84 122Z" fill="black"/>
<rect x="977" y="40" width="200" height="145" rx="11" fill="#E1FCCC"/>
<path d="M1054.06 107.24C1052.89 107.24 1051.82 107.032 1050.84 106.616C1049.86 106.2 1049.02 105.608 1048.3 104.84C1047.58 104.056 1047.02 103.136 1046.62 102.08C1046.23 101.024 1046.04 99.864 1046.04 98.6C1046.04 97.4 1046.25 96.288 1046.66 95.264C1047.1 94.224 1047.69 93.312 1048.44 92.528C1049.19 91.744 1050.06 91.136 1051.06 90.704C1052.05 90.272 1053.12 90.056 1054.27 90.056C1055.09 90.056 1055.88 90.184 1056.65 90.44C1057.43 90.68 1058.14 91.024 1058.76 91.472C1059.4 91.904 1059.92 92.4 1060.32 92.96L1058.59 94.76C1058.13 94.296 1057.66 93.912 1057.18 93.608C1056.71 93.288 1056.23 93.048 1055.74 92.888C1055.26 92.728 1054.77 92.648 1054.27 92.648C1053.49 92.648 1052.75 92.8 1052.06 93.104C1051.39 93.392 1050.8 93.8 1050.29 94.328C1049.79 94.856 1049.4 95.488 1049.11 96.224C1048.82 96.944 1048.68 97.736 1048.68 98.6C1048.68 99.512 1048.82 100.344 1049.09 101.096C1049.38 101.832 1049.78 102.464 1050.29 102.992C1050.8 103.52 1051.41 103.928 1052.11 104.216C1052.83 104.488 1053.62 104.624 1054.49 104.624C1055.02 104.624 1055.54 104.552 1056.05 104.408C1056.56 104.264 1057.04 104.056 1057.49 103.784C1057.94 103.512 1058.34 103.192 1058.71 102.824L1060.01 104.936C1059.64 105.368 1059.14 105.76 1058.5 106.112C1057.87 106.464 1057.17 106.744 1056.38 106.952C1055.62 107.144 1054.84 107.24 1054.06 107.24ZM1070.15 107.24C1069.11 107.24 1068.16 106.952 1067.3 106.376C1066.45 105.8 1065.77 105.016 1065.26 104.024C1064.75 103.032 1064.49 101.912 1064.49 100.664C1064.49 99.4 1064.75 98.28 1065.26 97.304C1065.79 96.312 1066.49 95.536 1067.37 94.976C1068.27 94.416 1069.27 94.136 1070.37 94.136C1071.03 94.136 1071.63 94.232 1072.17 94.424C1072.71 94.616 1073.19 94.888 1073.59 95.24C1074 95.576 1074.34 95.968 1074.59 96.416C1074.87 96.864 1075.03 97.344 1075.1 97.856L1074.55 97.664V94.4H1077.04V107H1074.55V104L1075.12 103.832C1075.03 104.264 1074.83 104.688 1074.52 105.104C1074.23 105.504 1073.86 105.864 1073.39 106.184C1072.95 106.504 1072.44 106.76 1071.88 106.952C1071.34 107.144 1070.76 107.24 1070.15 107.24ZM1070.8 104.96C1071.55 104.96 1072.22 104.776 1072.79 104.408C1073.37 104.04 1073.82 103.536 1074.14 102.896C1074.47 102.24 1074.64 101.496 1074.64 100.664C1074.64 99.848 1074.47 99.12 1074.14 98.48C1073.82 97.84 1073.37 97.336 1072.79 96.968C1072.22 96.6 1071.55 96.416 1070.8 96.416C1070.07 96.416 1069.41 96.6 1068.83 96.968C1068.27 97.336 1067.83 97.84 1067.49 98.48C1067.17 99.12 1067.01 99.848 1067.01 100.664C1067.01 101.496 1067.17 102.24 1067.49 102.896C1067.83 103.536 1068.27 104.04 1068.83 104.408C1069.41 104.776 1070.07 104.96 1070.8 104.96ZM1087.09 107.24C1086.04 107.24 1085.08 107.056 1084.24 106.688C1083.39 106.32 1082.68 105.776 1082.12 105.056L1083.8 103.616C1084.28 104.176 1084.8 104.584 1085.36 104.84C1085.94 105.08 1086.59 105.2 1087.31 105.2C1087.6 105.2 1087.86 105.168 1088.1 105.104C1088.36 105.024 1088.57 104.912 1088.75 104.768C1088.94 104.624 1089.08 104.456 1089.18 104.264C1089.28 104.056 1089.32 103.832 1089.32 103.592C1089.32 103.176 1089.17 102.84 1088.87 102.584C1088.71 102.472 1088.45 102.352 1088.1 102.224C1087.76 102.08 1087.32 101.936 1086.78 101.792C1085.85 101.552 1085.09 101.28 1084.5 100.976C1083.91 100.672 1083.45 100.328 1083.13 99.944C1082.89 99.64 1082.72 99.312 1082.6 98.96C1082.49 98.592 1082.44 98.192 1082.44 97.76C1082.44 97.232 1082.55 96.752 1082.77 96.32C1083.01 95.872 1083.33 95.488 1083.73 95.168C1084.15 94.832 1084.63 94.576 1085.17 94.4C1085.73 94.224 1086.32 94.136 1086.95 94.136C1087.54 94.136 1088.12 94.216 1088.7 94.376C1089.29 94.536 1089.84 94.768 1090.33 95.072C1090.83 95.376 1091.24 95.736 1091.58 96.152L1090.16 97.712C1089.86 97.408 1089.52 97.144 1089.16 96.92C1088.8 96.68 1088.44 96.496 1088.08 96.368C1087.71 96.24 1087.37 96.176 1087.07 96.176C1086.73 96.176 1086.43 96.208 1086.16 96.272C1085.88 96.336 1085.65 96.432 1085.46 96.56C1085.28 96.688 1085.15 96.848 1085.05 97.04C1084.96 97.232 1084.91 97.448 1084.91 97.688C1084.92 97.896 1084.97 98.096 1085.05 98.288C1085.15 98.464 1085.28 98.616 1085.44 98.744C1085.61 98.872 1085.88 99.008 1086.23 99.152C1086.58 99.296 1087.03 99.432 1087.57 99.56C1088.37 99.768 1089.03 100 1089.54 100.256C1090.07 100.496 1090.48 100.776 1090.79 101.096C1091.11 101.4 1091.33 101.752 1091.46 102.152C1091.59 102.552 1091.65 103 1091.65 103.496C1091.65 104.216 1091.44 104.864 1091.03 105.44C1090.63 106 1090.08 106.44 1089.4 106.76C1088.71 107.08 1087.94 107.24 1087.09 107.24ZM1102.66 107.24C1101.36 107.24 1100.21 106.968 1099.2 106.424C1098.21 105.864 1097.43 105.104 1096.85 104.144C1096.29 103.184 1096.01 102.08 1096.01 100.832C1096.01 99.84 1096.17 98.936 1096.49 98.12C1096.81 97.304 1097.25 96.6 1097.81 96.008C1098.39 95.4 1099.07 94.936 1099.85 94.616C1100.65 94.28 1101.51 94.112 1102.44 94.112C1103.26 94.112 1104.02 94.272 1104.72 94.592C1105.43 94.896 1106.03 95.32 1106.55 95.864C1107.07 96.408 1107.47 97.056 1107.75 97.808C1108.03 98.544 1108.17 99.352 1108.15 100.232L1108.13 101.288H1097.83L1097.28 99.32H1105.99L1105.63 99.728V99.152C1105.59 98.624 1105.41 98.152 1105.11 97.736C1104.8 97.32 1104.42 96.992 1103.95 96.752C1103.49 96.512 1102.99 96.392 1102.44 96.392C1101.58 96.392 1100.85 96.56 1100.26 96.896C1099.67 97.216 1099.22 97.696 1098.91 98.336C1098.61 98.96 1098.46 99.736 1098.46 100.664C1098.46 101.544 1098.64 102.312 1099.01 102.968C1099.38 103.608 1099.9 104.104 1100.57 104.456C1101.24 104.808 1102.02 104.984 1102.9 104.984C1103.52 104.984 1104.1 104.88 1104.63 104.672C1105.17 104.464 1105.75 104.088 1106.38 103.544L1107.63 105.296C1107.24 105.68 1106.77 106.016 1106.21 106.304C1105.67 106.592 1105.08 106.824 1104.46 107C1103.85 107.16 1103.25 107.24 1102.66 107.24ZM1034.26 137.24C1033.35 137.24 1032.5 137.12 1031.71 136.88C1030.95 136.64 1030.24 136.28 1029.6 135.8C1028.98 135.304 1028.42 134.696 1027.92 133.976L1029.7 131.936C1030.48 133.056 1031.23 133.832 1031.95 134.264C1032.67 134.696 1033.53 134.912 1034.52 134.912C1035.13 134.912 1035.68 134.816 1036.18 134.624C1036.67 134.432 1037.07 134.168 1037.35 133.832C1037.64 133.496 1037.79 133.112 1037.79 132.68C1037.79 132.392 1037.74 132.12 1037.64 131.864C1037.55 131.608 1037.39 131.376 1037.19 131.168C1036.99 130.96 1036.74 130.768 1036.42 130.592C1036.11 130.416 1035.75 130.264 1035.34 130.136C1034.92 129.992 1034.44 129.872 1033.9 129.776C1033.03 129.6 1032.28 129.368 1031.64 129.08C1031 128.792 1030.47 128.432 1030.03 128C1029.6 127.568 1029.28 127.08 1029.07 126.536C1028.87 125.976 1028.76 125.352 1028.76 124.664C1028.76 123.992 1028.91 123.368 1029.19 122.792C1029.5 122.216 1029.91 121.72 1030.42 121.304C1030.95 120.872 1031.56 120.544 1032.27 120.32C1032.97 120.08 1033.73 119.96 1034.55 119.96C1035.41 119.96 1036.2 120.072 1036.92 120.296C1037.64 120.52 1038.28 120.856 1038.84 121.304C1039.4 121.736 1039.87 122.272 1040.23 122.912L1038.41 124.712C1038.09 124.184 1037.73 123.744 1037.33 123.392C1036.93 123.024 1036.49 122.752 1036.01 122.576C1035.53 122.384 1035.02 122.288 1034.47 122.288C1033.85 122.288 1033.31 122.384 1032.84 122.576C1032.38 122.768 1032.01 123.04 1031.74 123.392C1031.48 123.728 1031.35 124.128 1031.35 124.592C1031.35 124.928 1031.42 125.24 1031.55 125.528C1031.67 125.8 1031.87 126.048 1032.12 126.272C1032.39 126.48 1032.75 126.672 1033.2 126.848C1033.65 127.008 1034.19 127.152 1034.81 127.28C1035.69 127.472 1036.47 127.72 1037.16 128.024C1037.85 128.312 1038.43 128.656 1038.91 129.056C1039.39 129.456 1039.75 129.904 1039.99 130.4C1040.25 130.896 1040.38 131.432 1040.38 132.008C1040.38 133.08 1040.13 134.008 1039.63 134.792C1039.14 135.576 1038.43 136.184 1037.52 136.616C1036.61 137.032 1035.52 137.24 1034.26 137.24ZM1047.39 137V121.184H1049.86V137H1047.39ZM1044.77 126.8V124.4H1052.79V126.8H1044.77ZM1061.85 137.24C1060.96 137.24 1060.17 137.032 1059.5 136.616C1058.85 136.2 1058.33 135.616 1057.97 134.864C1057.61 134.112 1057.44 133.216 1057.44 132.176V124.4H1059.91V131.504C1059.91 132.24 1060.02 132.88 1060.25 133.424C1060.49 133.952 1060.82 134.36 1061.25 134.648C1061.7 134.936 1062.24 135.08 1062.86 135.08C1063.33 135.08 1063.75 135.008 1064.13 134.864C1064.52 134.704 1064.85 134.488 1065.12 134.216C1065.41 133.944 1065.63 133.616 1065.79 133.232C1065.95 132.848 1066.03 132.432 1066.03 131.984V124.4H1068.5V137H1066.03V134.36L1066.46 134.072C1066.27 134.664 1065.94 135.2 1065.48 135.68C1065.03 136.16 1064.49 136.544 1063.87 136.832C1063.25 137.104 1062.57 137.24 1061.85 137.24ZM1079.62 137.24C1078.47 137.24 1077.44 136.96 1076.53 136.4C1075.63 135.824 1074.92 135.048 1074.39 134.072C1073.86 133.08 1073.6 131.952 1073.6 130.688C1073.6 129.424 1073.86 128.304 1074.37 127.328C1074.9 126.336 1075.61 125.56 1076.5 125C1077.4 124.424 1078.42 124.136 1079.55 124.136C1080.18 124.136 1080.78 124.24 1081.35 124.448C1081.94 124.64 1082.47 124.912 1082.94 125.264C1083.4 125.6 1083.76 125.976 1084.02 126.392C1084.29 126.792 1084.42 127.2 1084.42 127.616L1083.7 127.664V119.24H1086.18V137H1083.7V134H1084.18C1084.18 134.384 1084.06 134.768 1083.8 135.152C1083.54 135.52 1083.2 135.864 1082.77 136.184C1082.35 136.504 1081.86 136.76 1081.3 136.952C1080.76 137.144 1080.2 137.24 1079.62 137.24ZM1079.96 135.104C1080.71 135.104 1081.38 134.912 1081.95 134.528C1082.53 134.144 1082.98 133.624 1083.3 132.968C1083.63 132.296 1083.8 131.536 1083.8 130.688C1083.8 129.84 1083.63 129.088 1083.3 128.432C1082.98 127.76 1082.53 127.232 1081.95 126.848C1081.38 126.464 1080.71 126.272 1079.96 126.272C1079.21 126.272 1078.54 126.464 1077.97 126.848C1077.39 127.232 1076.94 127.76 1076.6 128.432C1076.28 129.088 1076.12 129.84 1076.12 130.688C1076.12 131.536 1076.28 132.296 1076.6 132.968C1076.94 133.624 1077.39 134.144 1077.97 134.528C1078.54 134.912 1079.21 135.104 1079.96 135.104ZM1092.39 137V124.4H1094.86V137H1092.39ZM1093.59 121.616C1093.06 121.616 1092.65 121.48 1092.36 121.208C1092.08 120.936 1091.93 120.552 1091.93 120.056C1091.93 119.592 1092.08 119.216 1092.36 118.928C1092.67 118.64 1093.08 118.496 1093.59 118.496C1094.12 118.496 1094.52 118.632 1094.81 118.904C1095.1 119.176 1095.24 119.56 1095.24 120.056C1095.24 120.52 1095.09 120.896 1094.79 121.184C1094.5 121.472 1094.1 121.616 1093.59 121.616ZM1106.94 137.24C1105.64 137.24 1104.49 136.968 1103.48 136.424C1102.49 135.864 1101.71 135.104 1101.13 134.144C1100.57 133.184 1100.29 132.08 1100.29 130.832C1100.29 129.84 1100.45 128.936 1100.77 128.12C1101.09 127.304 1101.53 126.6 1102.09 126.008C1102.67 125.4 1103.35 124.936 1104.13 124.616C1104.93 124.28 1105.8 124.112 1106.72 124.112C1107.54 124.112 1108.3 124.272 1109 124.592C1109.71 124.896 1110.32 125.32 1110.83 125.864C1111.36 126.408 1111.76 127.056 1112.03 127.808C1112.32 128.544 1112.45 129.352 1112.44 130.232L1112.41 131.288H1102.12L1101.56 129.32H1110.28L1109.92 129.728V129.152C1109.87 128.624 1109.69 128.152 1109.39 127.736C1109.08 127.32 1108.7 126.992 1108.24 126.752C1107.77 126.512 1107.27 126.392 1106.72 126.392C1105.86 126.392 1105.13 126.56 1104.54 126.896C1103.95 127.216 1103.5 127.696 1103.2 128.336C1102.89 128.96 1102.74 129.736 1102.74 130.664C1102.74 131.544 1102.92 132.312 1103.29 132.968C1103.66 133.608 1104.18 134.104 1104.85 134.456C1105.52 134.808 1106.3 134.984 1107.18 134.984C1107.8 134.984 1108.38 134.88 1108.91 134.672C1109.45 134.464 1110.04 134.088 1110.66 133.544L1111.91 135.296C1111.52 135.68 1111.05 136.016 1110.49 136.304C1109.95 136.592 1109.36 136.824 1108.74 137C1108.13 137.16 1107.53 137.24 1106.94 137.24ZM1121.72 137.24C1120.67 137.24 1119.71 137.056 1118.87 136.688C1118.02 136.32 1117.31 135.776 1116.75 135.056L1118.43 133.616C1118.91 134.176 1119.43 134.584 1119.99 134.84C1120.57 135.08 1121.22 135.2 1121.94 135.2C1122.23 135.2 1122.49 135.168 1122.73 135.104C1122.99 135.024 1123.2 134.912 1123.38 134.768C1123.57 134.624 1123.71 134.456 1123.81 134.264C1123.91 134.056 1123.95 133.832 1123.95 133.592C1123.95 133.176 1123.8 132.84 1123.5 132.584C1123.34 132.472 1123.08 132.352 1122.73 132.224C1122.39 132.08 1121.95 131.936 1121.41 131.792C1120.48 131.552 1119.72 131.28 1119.13 130.976C1118.54 130.672 1118.08 130.328 1117.76 129.944C1117.52 129.64 1117.35 129.312 1117.23 128.96C1117.12 128.592 1117.07 128.192 1117.07 127.76C1117.07 127.232 1117.18 126.752 1117.4 126.32C1117.64 125.872 1117.96 125.488 1118.36 125.168C1118.78 124.832 1119.26 124.576 1119.8 124.4C1120.36 124.224 1120.95 124.136 1121.58 124.136C1122.17 124.136 1122.75 124.216 1123.33 124.376C1123.92 124.536 1124.47 124.768 1124.96 125.072C1125.46 125.376 1125.87 125.736 1126.21 126.152L1124.79 127.712C1124.49 127.408 1124.15 127.144 1123.79 126.92C1123.43 126.68 1123.07 126.496 1122.71 126.368C1122.34 126.24 1122 126.176 1121.7 126.176C1121.36 126.176 1121.06 126.208 1120.79 126.272C1120.51 126.336 1120.28 126.432 1120.09 126.56C1119.91 126.688 1119.78 126.848 1119.68 127.04C1119.59 127.232 1119.54 127.448 1119.54 127.688C1119.55 127.896 1119.6 128.096 1119.68 128.288C1119.78 128.464 1119.91 128.616 1120.07 128.744C1120.24 128.872 1120.51 129.008 1120.86 129.152C1121.21 129.296 1121.66 129.432 1122.2 129.56C1123 129.768 1123.66 130 1124.17 130.256C1124.7 130.496 1125.11 130.776 1125.42 131.096C1125.74 131.4 1125.96 131.752 1126.09 132.152C1126.22 132.552 1126.28 133 1126.28 133.496C1126.28 134.216 1126.07 134.864 1125.66 135.44C1125.26 136 1124.71 136.44 1124.03 136.76C1123.34 137.08 1122.57 137.24 1121.72 137.24Z" fill="black"/>
<path d="M374.5 110.5C373.672 110.5 373 111.172 373 112C373 112.828 373.672 113.5 374.5 113.5V110.5ZM434 112C434 116.418 437.582 120 442 120C446.418 120 450 116.418 450 112C450 107.582 446.418 104 442 104C437.582 104 434 107.582 434 112ZM374.5 113.5L442 113.5V110.5L374.5 110.5V113.5Z" fill="#FACAD4"/>
<path d="M703.786 89.407C705.315 93.5522 709.915 95.6728 714.06 94.1436C718.206 92.6143 720.326 88.0143 718.797 83.8691C717.268 79.7239 712.668 77.6033 708.523 79.1325C704.377 80.6617 702.257 85.2618 703.786 89.407ZM643.064 113.407L711.811 88.0453L710.772 85.2307L642.026 110.593L643.064 113.407Z" fill="#D3EFFC"/>
<path d="M643.064 110.593C642.287 110.306 641.424 110.704 641.138 111.481C640.851 112.258 641.248 113.121 642.026 113.407L643.064 110.593ZM701.45 133.731C699.92 137.876 702.041 142.476 706.186 144.006C710.331 145.535 714.931 143.414 716.461 139.269C717.99 135.124 715.869 130.524 711.724 128.994C707.579 127.465 702.979 129.586 701.45 133.731ZM642.026 113.407L708.436 137.907L709.474 135.093L643.064 110.593L642.026 113.407Z" fill="#D3EFFC"/>
<rect x="1332.5" y="261.12" width="24" height="108.645" rx="4" fill="#C4C4C4"/>
<path d="M1266.05 238.37C1296.31 243.719 1315 246.095 1326.05 258.37V367.015C1311.94 355.705 1299.21 351.172 1266.05 347.015V238.37Z" fill="#C4C4C4"/>
<g filter="url(#filter0_d_1_2)">
<path d="M1422.95 238.37C1392.69 243.719 1374 246.095 1362.95 258.37V367.015C1377.06 355.705 1389.79 351.172 1422.95 347.015V238.37Z" fill="#C4C4C4"/>
</g>
<path d="M1333.05 255.451C1318.87 238.12 1300.62 237.331 1267.02 230.625" stroke="#C4C4C4" stroke-width="3"/>
<path d="M1335.65 248.82C1321.47 231.49 1303.22 230.7 1269.63 223.994" stroke="#C4C4C4" stroke-width="3"/>
<path d="M1338.26 242.19C1324.07 224.859 1305.82 224.07 1272.23 217.363" stroke="#C4C4C4" stroke-width="3"/>
<g filter="url(#filter1_d_1_2)">
<path d="M1340.86 235.559C1326.67 218.228 1308.42 217.439 1274.83 210.732" stroke="#C4C4C4" stroke-width="3"/>
</g>
<rect x="261.5" y="261.12" width="24" height="101" rx="4" fill="#C4C4C4"/>
<g filter="url(#filter2_d_1_2)">
<path d="M195.048 238.37C225.308 243.401 243.998 245.636 255.048 257.182V359.37C240.939 348.732 228.214 344.468 195.048 340.559V238.37Z" fill="#C4C4C4"/>
</g>
<path d="M351.952 238.37C321.692 243.401 303.002 245.636 291.952 257.182V359.37C306.061 348.732 318.786 344.468 351.952 340.559V238.37Z" fill="#C4C4C4"/>
<rect x="797.5" y="261.12" width="24" height="101" rx="4" fill="#C4C4C4"/>
<path d="M731.048 238.37C761.308 243.401 779.998 245.636 791.048 257.182V359.37C776.939 348.732 764.214 344.468 731.048 340.559V238.37Z" fill="#C4C4C4"/>
<path d="M887.952 238.37C857.692 243.401 839.002 245.636 827.952 257.182V359.37C842.061 348.732 854.786 344.468 887.952 340.559V238.37Z" fill="#C4C4C4"/>
<rect x="1065" y="261.12" width="24" height="101" rx="4" fill="#C4C4C4"/>
<path d="M998.548 238.37C1028.81 243.401 1047.5 245.636 1058.55 257.182V359.37C1044.44 348.732 1031.71 344.468 998.548 340.559V238.37Z" fill="#C4C4C4"/>
<path d="M1155.45 238.37C1125.19 243.401 1106.5 245.636 1095.45 257.182V359.37C1109.56 348.732 1122.29 344.468 1155.45 340.559V238.37Z" fill="#C4C4C4"/>
<rect x="530" y="261.12" width="24" height="101" rx="4" fill="#C4C4C4"/>
<path d="M463.548 238.37C493.808 243.401 512.498 245.636 523.548 257.182V359.37C509.439 348.732 496.714 344.468 463.548 340.559V238.37Z" fill="#C4C4C4"/>
<path d="M620.452 238.37C590.192 243.401 571.502 245.636 560.452 257.182V359.37C574.561 348.732 587.286 344.468 620.452 340.559V238.37Z" fill="#C4C4C4"/>
<path d="M290.649 251.601C304.895 238.227 318.357 238.697 351.952 232.925" stroke="#C4C4C4" stroke-width="3"/>
<path d="M286.764 247.91C301.057 233.637 316.755 232.991 350.35 227.219" stroke="#C4C4C4" stroke-width="3"/>
<path d="M283.267 243.831C295.894 230.037 315.153 227.284 348.748 221.513" stroke="#C4C4C4" stroke-width="3"/>
<g filter="url(#filter3_d_1_2)">
<path d="M279.77 239.751C292.398 224.792 313.551 221.578 347.146 215.806" stroke="#C4C4C4" stroke-width="3"/>
</g>
<path d="M821.923 254.291C836.107 239.376 854.357 238.697 887.952 232.926" stroke="#C4C4C4" stroke-width="3"/>
<path d="M797.077 253.966C782.893 239.051 764.643 238.372 731.048 232.6" stroke="#C4C4C4" stroke-width="3"/>
<g filter="url(#filter4_d_1_2)">
<path d="M819.321 248.585C833.505 233.67 851.755 232.991 885.35 227.219" stroke="#C4C4C4" stroke-width="3"/>
</g>
<g filter="url(#filter5_d_1_2)">
<path d="M817.321 245.422C831.505 230.507 849.755 229.828 883.35 224.056" stroke="#D3EFFC" stroke-width="3"/>
</g>
<g filter="url(#filter6_d_1_2)">
<path d="M799.679 248.259C785.495 233.344 767.245 232.665 733.65 226.894" stroke="#C4C4C4" stroke-width="3"/>
</g>
<g filter="url(#filter7_d_1_2)">
<path d="M801.679 245.422C787.495 230.507 769.245 229.828 735.65 224.056" stroke="#D3EFFC" stroke-width="3"/>
</g>
<g filter="url(#filter8_d_1_2)">
<path d="M1089.42 254.291C1103.61 239.376 1121.86 238.697 1155.45 232.926" stroke="#C4C4C4" stroke-width="3"/>
</g>
<g filter="url(#filter9_d_1_2)">
<path d="M1089.42 254.291C1103.61 239.376 1121.86 238.697 1155.45 232.926" stroke="#C4C4C4" stroke-width="3"/>
</g>
<g filter="url(#filter10_d_1_2)">
<path d="M1086.42 249.291C1100.61 234.376 1118.86 233.697 1152.45 227.926" stroke="#E1FCCC" stroke-width="3"/>
</g>
<g filter="url(#filter11_d_1_2)">
<path d="M1084.42 247.291C1098.61 232.376 1116.86 231.697 1150.45 225.926" stroke="#E1FCCC" stroke-width="3"/>
</g>
<path d="M1064.58 253.966C1050.39 239.051 1032.14 238.372 998.548 232.6" stroke="#C4C4C4" stroke-width="3"/>
<path d="M1067.18 248.259C1053 233.344 1034.75 232.665 1001.15 226.894" stroke="#C4C4C4" stroke-width="3"/>
<g filter="url(#filter12_d_1_2)">
<path d="M1070.01 242.878C1055.83 227.964 1037.58 227.284 1003.99 221.513" stroke="#C4C4C4" stroke-width="3"/>
</g>
<g filter="url(#filter13_d_1_2)">
<path d="M1070.01 242.878C1055.83 227.964 1037.58 227.284 1003.99 221.513" stroke="#C4C4C4" stroke-width="3"/>
</g>
<g filter="url(#filter14_d_1_2)">
<path d="M1073.01 237.878C1058.83 222.964 1040.58 222.284 1006.99 216.513" stroke="#E1FCCC" stroke-width="3"/>
</g>
<g filter="url(#filter15_d_1_2)">
<path d="M1074.01 235.878C1059.83 220.964 1041.58 220.284 1007.99 214.513" stroke="#E1FCCC" stroke-width="3"/>
</g>
<path d="M554.423 254.291C568.607 239.376 586.857 238.697 620.452 232.926" stroke="#C4C4C4" stroke-width="3"/>
<g filter="url(#filter16_d_1_2)">
<path d="M530.219 254.291C516.035 239.376 497.785 238.697 464.189 232.926" stroke="#C4C4C4" stroke-width="3"/>
</g>
<path d="M551.821 248.585C566.005 233.67 584.255 232.991 617.85 227.219" stroke="#C4C4C4" stroke-width="3"/>
<g filter="url(#filter17_d_1_2)">
<path d="M549.219 242.878C563.403 227.964 581.653 227.284 615.248 221.513" stroke="#C4C4C4" stroke-width="3"/>
</g>
</g>
<defs>
<filter id="filter0_d_1_2" x="1362.95" y="234.37" width="60" height="132.645" filterUnits="userSpaceOnUse" color-interpolation-filters="sRGB">
<feFlood flood-opacity="0" result="BackgroundImageFix"/>
<feColorMatrix in="SourceAlpha" type="matrix" values="0 0 0 0 0 0 0 0 0 0 0 0 0 0 0 0 0 0 127 0" result="hardAlpha"/>
<feOffset dy="-4"/>
<feComposite in2="hardAlpha" operator="out"/>
<feColorMatrix type="matrix" values="0 0 0 0 0.988235 0 0 0 0 0.945098 0 0 0 0 0.8 0 0 0 1 0"/>
<feBlend mode="normal" in2="BackgroundImageFix" result="effect1_dropShadow_1_2"/>
<feBlend mode="normal" in="SourceGraphic" in2="effect1_dropShadow_1_2" result="shape"/>
</filter>
<filter id="filter1_d_1_2" x="1274.54" y="207.262" width="67.4837" height="29.2474" filterUnits="userSpaceOnUse" color-interpolation-filters="sRGB">
<feFlood flood-opacity="0" result="BackgroundImageFix"/>
<feColorMatrix in="SourceAlpha" type="matrix" values="0 0 0 0 0 0 0 0 0 0 0 0 0 0 0 0 0 0 127 0" result="hardAlpha"/>
<feOffset dy="-2"/>
<feComposite in2="hardAlpha" operator="out"/>
<feColorMatrix type="matrix" values="0 0 0 0 0.988235 0 0 0 0 0.945098 0 0 0 0 0.8 0 0 0 1 0"/>
<feBlend mode="normal" in2="BackgroundImageFix" result="effect1_dropShadow_1_2"/>
<feBlend mode="normal" in="SourceGraphic" in2="effect1_dropShadow_1_2" result="shape"/>
</filter>
<filter id="filter2_d_1_2" x="195.048" y="234.37" width="60" height="125" filterUnits="userSpaceOnUse" color-interpolation-filters="sRGB">
<feFlood flood-opacity="0" result="BackgroundImageFix"/>
<feColorMatrix in="SourceAlpha" type="matrix" values="0 0 0 0 0 0 0 0 0 0 0 0 0 0 0 0 0 0 127 0" result="hardAlpha"/>
<feOffset dy="-4"/>
<feComposite in2="hardAlpha" operator="out"/>
<feColorMatrix type="matrix" values="0 0 0 0 0.768627 0 0 0 0 0.768627 0 0 0 0 0.768627 0 0 0 0.5 0"/>
<feBlend mode="normal" in2="BackgroundImageFix" result="effect1_dropShadow_1_2"/>
<feBlend mode="normal" in="SourceGraphic" in2="effect1_dropShadow_1_2" result="shape"/>
</filter>
<filter id="filter3_d_1_2" x="278.524" y="212.383" width="69.0121" height="28.314" filterUnits="userSpaceOnUse" color-interpolation-filters="sRGB">
<feFlood flood-opacity="0" result="BackgroundImageFix"/>
<feColorMatrix in="SourceAlpha" type="matrix" values="0 0 0 0 0 0 0 0 0 0 0 0 0 0 0 0 0 0 127 0" result="hardAlpha"/>
<feOffset dy="-2"/>
<feComposite in2="hardAlpha" operator="out"/>
<feColorMatrix type="matrix" values="0 0 0 0 0.882353 0 0 0 0 0.882353 0 0 0 0 0.882353 0 0 0 0.5 0"/>
<feBlend mode="normal" in2="BackgroundImageFix" result="effect1_dropShadow_1_2"/>
<feBlend mode="normal" in="SourceGraphic" in2="effect1_dropShadow_1_2" result="shape"/>
</filter>
<filter id="filter4_d_1_2" x="814.127" y="218.796" width="75.6131" height="31.7933" filterUnits="userSpaceOnUse" color-interpolation-filters="sRGB">
<feFlood flood-opacity="0" result="BackgroundImageFix"/>
<feColorMatrix in="SourceAlpha" type="matrix" values="0 0 0 0 0 0 0 0 0 0 0 0 0 0 0 0 0 0 127 0" result="hardAlpha"/>
<feOffset dy="-3"/>
<feGaussianBlur stdDeviation="2"/>
<feComposite in2="hardAlpha" operator="out"/>
<feColorMatrix type="matrix" values="0 0 0 0 0.827451 0 0 0 0 0.937255 0 0 0 0 0.988235 0 0 0 1 0"/>
<feBlend mode="normal" in2="BackgroundImageFix" result="effect1_dropShadow_1_2"/>
<feBlend mode="normal" in="SourceGraphic" in2="effect1_dropShadow_1_2" result="shape"/>
</filter>
<filter id="filter5_d_1_2" x="812.127" y="215.633" width="75.6131" height="31.7933" filterUnits="userSpaceOnUse" color-interpolation-filters="sRGB">
<feFlood flood-opacity="0" result="BackgroundImageFix"/>
<feColorMatrix in="SourceAlpha" type="matrix" values="0 0 0 0 0 0 0 0 0 0 0 0 0 0 0 0 0 0 127 0" result="hardAlpha"/>
<feOffset dy="-3"/>
<feGaussianBlur stdDeviation="2"/>
<feComposite in2="hardAlpha" operator="out"/>
<feColorMatrix type="matrix" values="0 0 0 0 0.827451 0 0 0 0 0.937255 0 0 0 0 0.988235 0 0 0 1 0"/>
<feBlend mode="normal" in2="BackgroundImageFix" result="effect1_dropShadow_1_2"/>
<feBlend mode="normal" in="SourceGraphic" in2="effect1_dropShadow_1_2" result="shape"/>
</filter>
<filter id="filter6_d_1_2" x="729.26" y="218.47" width="75.613" height="31.7933" filterUnits="userSpaceOnUse" color-interpolation-filters="sRGB">
<feFlood flood-opacity="0" result="BackgroundImageFix"/>
<feColorMatrix in="SourceAlpha" type="matrix" values="0 0 0 0 0 0 0 0 0 0 0 0 0 0 0 0 0 0 127 0" result="hardAlpha"/>
<feOffset dy="-3"/>
<feGaussianBlur stdDeviation="2"/>
<feComposite in2="hardAlpha" operator="out"/>
<feColorMatrix type="matrix" values="0 0 0 0 0.827451 0 0 0 0 0.937255 0 0 0 0 0.988235 0 0 0 1 0"/>
<feBlend mode="normal" in2="BackgroundImageFix" result="effect1_dropShadow_1_2"/>
<feBlend mode="normal" in="SourceGraphic" in2="effect1_dropShadow_1_2" result="shape"/>
</filter>
<filter id="filter7_d_1_2" x="731.26" y="215.633" width="75.613" height="31.7933" filterUnits="userSpaceOnUse" color-interpolation-filters="sRGB">
<feFlood flood-opacity="0" result="BackgroundImageFix"/>
<feColorMatrix in="SourceAlpha" type="matrix" values="0 0 0 0 0 0 0 0 0 0 0 0 0 0 0 0 0 0 127 0" result="hardAlpha"/>
<feOffset dy="-3"/>
<feGaussianBlur stdDeviation="2"/>
<feComposite in2="hardAlpha" operator="out"/>
<feColorMatrix type="matrix" values="0 0 0 0 0.827451 0 0 0 0 0.937255 0 0 0 0 0.988235 0 0 0 1 0"/>
<feBlend mode="normal" in2="BackgroundImageFix" result="effect1_dropShadow_1_2"/>
<feBlend mode="normal" in="SourceGraphic" in2="effect1_dropShadow_1_2" result="shape"/>
</filter>
<filter id="filter8_d_1_2" x="1084.23" y="223.502" width="75.6131" height="31.7933" filterUnits="userSpaceOnUse" color-interpolation-filters="sRGB">
<feFlood flood-opacity="0" result="BackgroundImageFix"/>
<feColorMatrix in="SourceAlpha" type="matrix" values="0 0 0 0 0 0 0 0 0 0 0 0 0 0 0 0 0 0 127 0" result="hardAlpha"/>
<feOffset dy="-4"/>
<feGaussianBlur stdDeviation="2"/>
<feComposite in2="hardAlpha" operator="out"/>
<feColorMatrix type="matrix" values="0 0 0 0 0.882353 0 0 0 0 0.988235 0 0 0 0 0.8 0 0 0 1 0"/>
<feBlend mode="normal" in2="BackgroundImageFix" result="effect1_dropShadow_1_2"/>
<feBlend mode="normal" in="SourceGraphic" in2="effect1_dropShadow_1_2" result="shape"/>
</filter>
<filter id="filter9_d_1_2" x="1084.23" y="223.502" width="75.6131" height="31.7933" filterUnits="userSpaceOnUse" color-interpolation-filters="sRGB">
<feFlood flood-opacity="0" result="BackgroundImageFix"/>
<feColorMatrix in="SourceAlpha" type="matrix" values="0 0 0 0 0 0 0 0 0 0 0 0 0 0 0 0 0 0 127 0" result="hardAlpha"/>
<feOffset dy="-4"/>
<feGaussianBlur stdDeviation="2"/>
<feComposite in2="hardAlpha" operator="out"/>
<feColorMatrix type="matrix" values="0 0 0 0 0.882353 0 0 0 0 0.988235 0 0 0 0 0.8 0 0 0 1 0"/>
<feBlend mode="normal" in2="BackgroundImageFix" result="effect1_dropShadow_1_2"/>
<feBlend mode="normal" in="SourceGraphic" in2="effect1_dropShadow_1_2" result="shape"/>
</filter>
<filter id="filter10_d_1_2" x="1081.23" y="218.502" width="75.6131" height="31.7933" filterUnits="userSpaceOnUse" color-interpolation-filters="sRGB">
<feFlood flood-opacity="0" result="BackgroundImageFix"/>
<feColorMatrix in="SourceAlpha" type="matrix" values="0 0 0 0 0 0 0 0 0 0 0 0 0 0 0 0 0 0 127 0" result="hardAlpha"/>
<feOffset dy="-4"/>
<feGaussianBlur stdDeviation="2"/>
<feComposite in2="hardAlpha" operator="out"/>
<feColorMatrix type="matrix" values="0 0 0 0 0.882353 0 0 0 0 0.988235 0 0 0 0 0.8 0 0 0 1 0"/>
<feBlend mode="normal" in2="BackgroundImageFix" result="effect1_dropShadow_1_2"/>
<feBlend mode="normal" in="SourceGraphic" in2="effect1_dropShadow_1_2" result="shape"/>
</filter>
<filter id="filter11_d_1_2" x="1079.23" y="216.502" width="75.6131" height="31.7933" filterUnits="userSpaceOnUse" color-interpolation-filters="sRGB">
<feFlood flood-opacity="0" result="BackgroundImageFix"/>
<feColorMatrix in="SourceAlpha" type="matrix" values="0 0 0 0 0 0 0 0 0 0 0 0 0 0 0 0 0 0 127 0" result="hardAlpha"/>
<feOffset dy="-4"/>
<feGaussianBlur stdDeviation="2"/>
<feComposite in2="hardAlpha" operator="out"/>
<feColorMatrix type="matrix" values="0 0 0 0 0.882353 0 0 0 0 0.988235 0 0 0 0 0.8 0 0 0 1 0"/>
<feBlend mode="normal" in2="BackgroundImageFix" result="effect1_dropShadow_1_2"/>
<feBlend mode="normal" in="SourceGraphic" in2="effect1_dropShadow_1_2" result="shape"/>
</filter>
<filter id="filter12_d_1_2" x="999.596" y="212.089" width="75.6131" height="31.7933" filterUnits="userSpaceOnUse" color-interpolation-filters="sRGB">
<feFlood flood-opacity="0" result="BackgroundImageFix"/>
<feColorMatrix in="SourceAlpha" type="matrix" values="0 0 0 0 0 0 0 0 0 0 0 0 0 0 0 0 0 0 127 0" result="hardAlpha"/>
<feOffset dy="-4"/>
<feGaussianBlur stdDeviation="2"/>
<feComposite in2="hardAlpha" operator="out"/>
<feColorMatrix type="matrix" values="0 0 0 0 0.882353 0 0 0 0 0.988235 0 0 0 0 0.8 0 0 0 1 0"/>
<feBlend mode="normal" in2="BackgroundImageFix" result="effect1_dropShadow_1_2"/>
<feBlend mode="normal" in="SourceGraphic" in2="effect1_dropShadow_1_2" result="shape"/>
</filter>
<filter id="filter13_d_1_2" x="999.596" y="212.089" width="75.6131" height="31.7933" filterUnits="userSpaceOnUse" color-interpolation-filters="sRGB">
<feFlood flood-opacity="0" result="BackgroundImageFix"/>
<feColorMatrix in="SourceAlpha" type="matrix" values="0 0 0 0 0 0 0 0 0 0 0 0 0 0 0 0 0 0 127 0" result="hardAlpha"/>
<feOffset dy="-4"/>
<feGaussianBlur stdDeviation="2"/>
<feComposite in2="hardAlpha" operator="out"/>
<feColorMatrix type="matrix" values="0 0 0 0 0.882353 0 0 0 0 0.988235 0 0 0 0 0.8 0 0 0 1 0"/>
<feBlend mode="normal" in2="BackgroundImageFix" result="effect1_dropShadow_1_2"/>
<feBlend mode="normal" in="SourceGraphic" in2="effect1_dropShadow_1_2" result="shape"/>
</filter>
<filter id="filter14_d_1_2" x="1002.6" y="207.089" width="75.6131" height="31.7933" filterUnits="userSpaceOnUse" color-interpolation-filters="sRGB">
<feFlood flood-opacity="0" result="BackgroundImageFix"/>
<feColorMatrix in="SourceAlpha" type="matrix" values="0 0 0 0 0 0 0 0 0 0 0 0 0 0 0 0 0 0 127 0" result="hardAlpha"/>
<feOffset dy="-4"/>
<feGaussianBlur stdDeviation="2"/>
<feComposite in2="hardAlpha" operator="out"/>
<feColorMatrix type="matrix" values="0 0 0 0 0.882353 0 0 0 0 0.988235 0 0 0 0 0.8 0 0 0 1 0"/>
<feBlend mode="normal" in2="BackgroundImageFix" result="effect1_dropShadow_1_2"/>
<feBlend mode="normal" in="SourceGraphic" in2="effect1_dropShadow_1_2" result="shape"/>
</filter>
<filter id="filter15_d_1_2" x="1003.6" y="205.089" width="75.6131" height="31.7933" filterUnits="userSpaceOnUse" color-interpolation-filters="sRGB">
<feFlood flood-opacity="0" result="BackgroundImageFix"/>
<feColorMatrix in="SourceAlpha" type="matrix" values="0 0 0 0 0 0 0 0 0 0 0 0 0 0 0 0 0 0 127 0" result="hardAlpha"/>
<feOffset dy="-4"/>
<feGaussianBlur stdDeviation="2"/>
<feComposite in2="hardAlpha" operator="out"/>
<feColorMatrix type="matrix" values="0 0 0 0 0.882353 0 0 0 0 0.988235 0 0 0 0 0.8 0 0 0 1 0"/>
<feBlend mode="normal" in2="BackgroundImageFix" result="effect1_dropShadow_1_2"/>
<feBlend mode="normal" in="SourceGraphic" in2="effect1_dropShadow_1_2" result="shape"/>
</filter>
<filter id="filter16_d_1_2" x="459.8" y="225.502" width="75.6131" height="31.7933" filterUnits="userSpaceOnUse" color-interpolation-filters="sRGB">
<feFlood flood-opacity="0" result="BackgroundImageFix"/>
<feColorMatrix in="SourceAlpha" type="matrix" values="0 0 0 0 0 0 0 0 0 0 0 0 0 0 0 0 0 0 127 0" result="hardAlpha"/>
<feOffset dy="-2"/>
<feGaussianBlur stdDeviation="2"/>
<feComposite in2="hardAlpha" operator="out"/>
<feColorMatrix type="matrix" values="0 0 0 0 0.980392 0 0 0 0 0.792157 0 0 0 0 0.831373 0 0 0 1 0"/>
<feBlend mode="normal" in2="BackgroundImageFix" result="effect1_dropShadow_1_2"/>
<feBlend mode="normal" in="SourceGraphic" in2="effect1_dropShadow_1_2" result="shape"/>
</filter>
<filter id="filter17_d_1_2" x="544.025" y="214.089" width="75.6131" height="31.7933" filterUnits="userSpaceOnUse" color-interpolation-filters="sRGB">
<feFlood flood-opacity="0" result="BackgroundImageFix"/>
<feColorMatrix in="SourceAlpha" type="matrix" values="0 0 0 0 0 0 0 0 0 0 0 0 0 0 0 0 0 0 127 0" result="hardAlpha"/>
<feOffset dy="-2"/>
<feGaussianBlur stdDeviation="2"/>
<feComposite in2="hardAlpha" operator="out"/>
<feColorMatrix type="matrix" values="0 0 0 0 0.980392 0 0 0 0 0.792157 0 0 0 0 0.834196 0 0 0 1 0"/>
<feBlend mode="normal" in2="BackgroundImageFix" result="effect1_dropShadow_1_2"/>
<feBlend mode="normal" in="SourceGraphic" in2="effect1_dropShadow_1_2" result="shape"/>
</filter>
<clipPath id="clip0_1_2">
<rect width="1587" height="405" fill="white"/>
</clipPath>
</defs>
</svg>
